<svg xmlns="http://www.w3.org/2000/svg" width="405.70721435546875" height="410.2205810546875" viewBox="-126.87725067138672 -114.8419418334961 405.70721435546875 410.2205810546875"><title>Neo4j Graph Visualization</title><desc>Created using Neo4j (http://www.neo4j.com/)</desc><g class="layer relationships"><g class="relationship" transform="translate(-92.11608653169034 266.37864236207884) rotate(298.0750723261387)"><path class="outline" fill="#A5ABB6" stroke="none" d="M 25 0.5 L 91.92845721370598 0.5 L 91.92845721370598 -0.5 L 25 -0.5 Z M 137.490957213706 0.5 L 204.41941442741197 0.5 L 204.41941442741197 3.5 L 211.41941442741197 0 L 204.41941442741197 -3.5 L 204.41941442741197 -0.5 L 137.490957213706 -0.5 Z"/><text text-anchor="middle" pointer-events="none" font-size="8px" fill="#000000" x="114.70970721370598" y="3" font-family="sans-serif">ACTED_IN</text></g><g class="relationship" transform="translate(56.4111552575298 136.72439211505662) rotate(244.73323730058803)"><path class="outline" fill="#A5ABB6" stroke="none" d="M 25 0.5 L 25.148926857525808 0.5 L 25.148926857525808 -0.5 L 25 -0.5 Z M 55.14892685752581 0.5 L 55.297853715051616 0.5 L 55.297853715051616 3.5 L 62.297853715051616 0 L 55.297853715051616 -3.5 L 55.297853715051616 -0.5 L 55.14892685752581 -0.5 Z"/><text text-anchor="middle" pointer-events="none" font-size="8px" fill="#000000" x="40.14892685752581" y="3" transform="rotate(180 40.14892685752581 0)" font-family="sans-serif">ACT…</text></g><g class="relationship" transform="translate(115.90910470879214 131.75933725025465) rotate(217.40102863456423)"><path class="outline" fill="#A5ABB6" stroke="none" d="M 25 0.5 L 34.61951200693164 0.5 L 34.61951200693164 -0.5 L 25 -0.5 Z M 80.18201200693164 0.5 L 89.80152401386329 0.5 L 89.80152401386329 3.5 L 96.80152401386329 0 L 89.80152401386329 -3.5 L 89.80152401386329 -0.5 L 80.18201200693164 -0.5 Z"/><text text-anchor="middle" pointer-events="none" font-size="8px" fill="#000000" x="57.40076200693164" y="3" transform="rotate(180 57.40076200693164 0)" font-family="sans-serif">ACTED_IN</text></g><g class="relationship" transform="translate(249.82992162476972 -68.64251084619107) rotate(511.27574041711387)"><path class="outline" fill="#A5ABB6" stroke="none" d="M 25 0.5 L 105.24409712966255 0.5 L 105.24409712966255 -0.5 L 25 -0.5 Z M 150.80659712966255 0.5 L 231.0506942593251 0.5 L 231.0506942593251 3.5 L 238.0506942593251 0 L 231.0506942593251 -3.5 L 231.0506942593251 -0.5 L 150.80659712966255 -0.5 Z"/><text text-anchor="middle" pointer-events="none" font-size="8px" fill="#000000" x="128.02534712966255" y="3" transform="rotate(180 128.02534712966255 0)" font-family="sans-serif">ACTED_IN</text></g><g class="relationship" transform="translate(103.55643920863713 73.12462098908044) rotate(190.30459117873613)"><path class="outline" fill="#A5ABB6" stroke="none" d="M 25 0.5 L 25.5066583735993 0.5 L 25.5066583735993 -0.5 L 25 -0.5 Z M 53.2840021235993 0.5 L 53.7906604971986 0.5 L 53.7906604971986 3.5 L 60.7906604971986 0 L 53.7906604971986 -3.5 L 53.7906604971986 -0.5 L 53.2840021235993 -0.5 Z"/><text text-anchor="middle" pointer-events="none" font-size="8px" fill="#000000" x="39.3953302485993" y="3" transform="rotate(180 39.3953302485993 0)" font-family="sans-serif">DIR…</text></g><g class="relationship" transform="translate(147.87893511545028 33.06800092153161) rotate(529.1339434444756)"><path class="outline" fill="#A5ABB6" stroke="none" d="M 25 0.5 L 38.59448589940517 0.5 L 38.59448589940517 -0.5 L 25 -0.5 Z M 85.48511089940517 0.5 L 99.07959679881034 0.5 L 99.07959679881034 3.5 L 106.07959679881034 0 L 99.07959679881034 -3.5 L 99.07959679881034 -0.5 L 85.48511089940517 -0.5 Z"/><text text-anchor="middle" pointer-events="none" font-size="8px" fill="#000000" x="62.03979839940517" y="3" transform="rotate(180 62.03979839940517 0)" font-family="sans-serif">DIRECTED</text></g><g class="relationship" transform="translate(160.3448188038932 91.57606269316739) rotate(193.4615393212963)"><path class="outline" fill="#A5ABB6" stroke="none" d="M 25 0.5 L 43.20138723771903 0.5 L 43.20138723771903 -0.5 L 25 -0.5 Z M 94.98263723771903 0.5 L 113.18402447543806 0.5 L 113.18402447543806 3.5 L 120.18402447543806 0 L 113.18402447543806 -3.5 L 113.18402447543806 -0.5 L 94.98263723771903 -0.5 Z"/><text text-anchor="middle" pointer-events="none" font-size="8px" fill="#000000" x="69.09201223771903" y="3" transform="rotate(180 69.09201223771903 0)" font-family="sans-serif">PRODUCED</text></g><g class="relationship" transform="translate(-97.87724892491639 69.07491409043332) rotate(354.48631057093985)"><path class="outline" fill="#A5ABB6" stroke="none" d="M 25 0.5 L 32.50411919611567 0.5 L 32.50411919611567 -0.5 L 25 -0.5 Z M 78.06661919611567 0.5 L 85.57073839223133 0.5 L 85.57073839223133 3.5 L 92.57073839223133 0 L 85.57073839223133 -3.5 L 85.57073839223133 -0.5 L 78.06661919611567 -0.5 Z"/><text text-anchor="middle" pointer-events="none" font-size="8px" fill="#000000" x="55.28536919611567" y="3" font-family="sans-serif">ACTED_IN</text></g><g class="relationship" transform="translate(-92.11608653169034 266.37864236207884) rotate(358.93814114319935)"><path class="outline" fill="#A5ABB6" stroke="none" d="M 25 0.5 L 143.97286552955896 0.5 L 143.97286552955896 -0.5 L 25 -0.5 Z M 189.53536552955896 0.5 L 308.5082310591179 0.5 L 308.5082310591179 3.5 L 315.5082310591179 0 L 308.5082310591179 -3.5 L 308.5082310591179 -0.5 L 189.53536552955896 -0.5 Z"/><text text-anchor="middle" pointer-events="none" font-size="8px" fill="#000000" x="166.75411552955896" y="3" font-family="sans-serif">ACTED_IN</text></g><g class="relationship" transform="translate(56.4111552575298 136.72439211505662) rotate(392.7278822336012)"><path class="outline" fill="#A5ABB6" stroke="none" d="M 25 0.5 L 87.78889559068813 0.5 L 87.78889559068813 -0.5 L 25 -0.5 Z M 133.35139559068813 0.5 L 196.14029118137626 0.5 L 196.14029118137626 3.5 L 203.14029118137626 0 L 196.14029118137626 -3.5 L 196.14029118137626 -0.5 L 133.35139559068813 -0.5 Z"/><text text-anchor="middle" pointer-events="none" font-size="8px" fill="#000000" x="110.57014559068813" y="3" font-family="sans-serif">ACTED_IN</text></g><g class="relationship" transform="translate(115.90910470879214 131.75933725025465) rotate(404.09569764386237)"><path class="outline" fill="#A5ABB6" stroke="none" d="M 25 0.5 L 65.91348625567515 0.5 L 65.91348625567515 -0.5 L 25 -0.5 Z M 111.47598625567515 0.5 L 152.3894725113503 0.5 L 152.3894725113503 3.5 L 159.3894725113503 0 L 152.3894725113503 -3.5 L 152.3894725113503 -0.5 L 111.47598625567515 -0.5 Z"/><text text-anchor="middle" pointer-events="none" font-size="8px" fill="#000000" x="88.69473625567515" y="3" font-family="sans-serif">ACTED_IN</text></g><g class="relationship" transform="translate(249.82992162476972 -68.64251084619107) rotate(450.26080170744456)"><path class="outline" fill="#A5ABB6" stroke="none" d="M 25 0.5 L 138.07590175070752 0.5 L 138.07590175070752 -0.5 L 25 -0.5 Z M 183.63840175070752 0.5 L 296.71430350141503 0.5 L 296.71430350141503 3.5 L 303.71430350141503 0 L 296.71430350141503 -3.5 L 296.71430350141503 -0.5 L 183.63840175070752 -0.5 Z"/><text text-anchor="middle" pointer-events="none" font-size="8px" fill="#000000" x="160.85715175070752" y="3" transform="rotate(180 160.85715175070752 0)" font-family="sans-serif">ACTED_IN</text></g><g class="relationship" transform="translate(103.55643920863713 73.12462098908044) rotate(412.2442711264506)"><path class="outline" fill="#A5ABB6" stroke="none" d="M 25 0.5 L 91.27949248014387 0.5 L 91.27949248014387 -0.5 L 25 -0.5 Z M 138.17011748014386 0.5 L 204.44960996028775 0.5 L 204.44960996028775 3.5 L 211.44960996028775 0 L 204.44960996028775 -3.5 L 204.44960996028775 -0.5 L 138.17011748014386 -0.5 Z"/><text text-anchor="middle" pointer-events="none" font-size="8px" fill="#000000" x="114.72480498014387" y="3" font-family="sans-serif">DIRECTED</text></g><g class="relationship" transform="translate(147.87893511545028 33.06800092153161) rotate(426.129119134843)"><path class="outline" fill="#A5ABB6" stroke="none" d="M 25 0.5 L 97.17189922881504 0.5 L 97.17189922881504 -0.5 L 25 -0.5 Z M 144.06252422881505 0.5 L 216.23442345763007 0.5 L 216.23442345763007 3.5 L 223.23442345763007 0 L 216.23442345763007 -3.5 L 216.23442345763007 -0.5 L 144.06252422881505 -0.5 Z"/><text text-anchor="middle" pointer-events="none" font-size="8px" fill="#000000" x="120.61721172881504" y="3" font-family="sans-serif">DIRECTED</text></g><g class="relationship" transform="translate(160.3448188038932 91.57606269316739) rotate(422.42585976891195)"><path class="outline" fill="#A5ABB6" stroke="none" d="M 25 0.5 L 65.65107798164958 0.5 L 65.65107798164958 -0.5 L 25 -0.5 Z M 117.43232798164958 0.5 L 158.08340596329916 0.5 L 158.08340596329916 3.5 L 165.08340596329916 0 L 158.08340596329916 -3.5 L 158.08340596329916 -0.5 L 117.43232798164958 -0.5 Z"/><text text-anchor="middle" pointer-events="none" font-size="8px" fill="#000000" x="91.54170298164958" y="3" font-family="sans-serif">PRODUCED</text></g><g class="relationship" transform="translate(249.82992162476972 -68.64251084619107) rotate(183.8964271149864)"><path class="outline" fill="#A5ABB6" stroke="none" d="M 25 0.5 L 100.27248945390387 0.5 L 100.27248945390387 -0.5 L 25 -0.5 Z M 145.83498945390386 0.5 L 221.10747890780775 0.5 L 221.10747890780775 3.5 L 228.10747890780775 0 L 221.10747890780775 -3.5 L 221.10747890780775 -0.5 L 145.83498945390386 -0.5 Z"/><text text-anchor="middle" pointer-events="none" font-size="8px" fill="#000000" x="123.05373945390387" y="3" transform="rotate(180 123.05373945390387 0)" font-family="sans-serif">ACTED_IN</text></g><g class="relationship" transform="translate(249.82992162476972 -68.64251084619107) rotate(535.5299708615959)"><path class="outline" fill="#A5ABB6" stroke="none" d="M 25 0.5 L 28.160233530874088 0.5 L 28.160233530874088 -0.5 L 25 -0.5 Z M 73.72273353087408 0.5 L 76.88296706174818 0.5 L 76.88296706174818 3.5 L 83.88296706174818 0 L 76.88296706174818 -3.5 L 76.88296706174818 -0.5 L 73.72273353087408 -0.5 Z"/><text text-anchor="middle" pointer-events="none" font-size="8px" fill="#000000" x="50.94148353087409" y="3" transform="rotate(180 50.94148353087409 0)" font-family="sans-serif">ACTED_IN</text></g><g class="relationship" transform="translate(249.82992162476972 -68.64251084619107) rotate(451.4775409333249)"><path class="outline" fill="#A5ABB6" stroke="none" d="M 25 0.5 L 30.30801977700515 0.5 L 30.30801977700515 -0.5 L 25 -0.5 Z M 75.87051977700514 0.5 L 81.1785395540103 0.5 L 81.1785395540103 3.5 L 88.1785395540103 0 L 81.1785395540103 -3.5 L 81.1785395540103 -0.5 L 75.87051977700514 -0.5 Z"/><text text-anchor="middle" pointer-events="none" font-size="8px" fill="#000000" x="53.08926977700515" y="3" transform="rotate(180 53.08926977700515 0)" font-family="sans-serif">ACTED_IN</text></g><g class="relationship" transform="translate(-92.11608653169034 266.37864236207884) rotate(284.2455606043194)"><path class="outline" fill="#A5ABB6" stroke="none" d="M 25 0.5 L 155.41624423659135 0.5 L 155.41624423659135 -0.5 L 25 -0.5 Z M 200.97874423659135 0.5 L 331.3949884731827 0.5 L 331.3949884731827 3.5 L 338.3949884731827 0 L 331.3949884731827 -3.5 L 331.3949884731827 -0.5 L 200.97874423659135 -0.5 Z"/><text text-anchor="middle" pointer-events="none" font-size="8px" fill="#000000" x="178.19749423659135" y="3" font-family="sans-serif">ACTED_IN</text></g><g class="relationship" transform="translate(56.4111552575298 136.72439211505662) rotate(255.12805092621778)"><path class="outline" fill="#A5ABB6" stroke="none" d="M 25 0.5 L 88.85889929343591 0.5 L 88.85889929343591 -0.5 L 25 -0.5 Z M 134.4213992934359 0.5 L 198.28029858687182 0.5 L 198.28029858687182 3.5 L 205.28029858687182 0 L 198.28029858687182 -3.5 L 198.28029858687182 -0.5 L 134.4213992934359 -0.5 Z"/><text text-anchor="middle" pointer-events="none" font-size="8px" fill="#000000" x="111.64014929343591" y="3" transform="rotate(180 111.64014929343591 0)" font-family="sans-serif">ACTED_IN</text></g><g class="relationship" transform="translate(115.90910470879214 131.75933725025465) rotate(241.40780694553496)"><path class="outline" fill="#A5ABB6" stroke="none" d="M 25 0.5 L 97.63067295987987 0.5 L 97.63067295987987 -0.5 L 25 -0.5 Z M 143.19317295987986 0.5 L 215.82384591975975 0.5 L 215.82384591975975 3.5 L 222.82384591975975 0 L 215.82384591975975 -3.5 L 215.82384591975975 -0.5 L 143.19317295987986 -0.5 Z"/><text text-anchor="middle" pointer-events="none" font-size="8px" fill="#000000" x="120.41192295987987" y="3" transform="rotate(180 120.41192295987987 0)" font-family="sans-serif">ACTED_IN</text></g><g class="relationship" transform="translate(103.55643920863713 73.12462098908044) rotate(348.70728906120723)"><path class="outline" fill="#A5ABB6" stroke="none" d="M 24.018736134675446,6.953439040707552 L 24.277555179777966,5.987513214418485 A 183.3343673115922 183.3343673115922 0 0 0 43.844816398051194,10.101711666437836 L 43.69272726674065,11.090078448628134 A 184.3343673115922 184.3343673115922 0 0 1 24.018736134675446,6.953439040707552 Z M 95.43970822337755,11.70304776999302 L 95.31107389703158,10.711355675598043 A 183.3343673115922 183.3343673115922 0 0 0 114.97030055671297,7.061814933257009 L 114.26270295574523,4.146458070863539 L 121.89073283579236,5.896646674731184 L 115.91376402466997,10.948957416448302 L 115.20616642370223,8.033600554054832 A 184.3343673115922 184.3343673115922 0 0 1 95.43970822337755,11.70304776999302"/><text text-anchor="middle" pointer-events="none" font-size="8px" fill="#000000" x="69.55052219609004" y="15.721584191601664" font-family="sans-serif">PRODUCED</text></g><g class="relationship" transform="translate(103.55643920863713 73.12462098908044) rotate(348.70728906120723)"><path class="outline" fill="#A5ABB6" stroke="none" d="M 24.018736134675446,-6.953439040707552 L 24.277555179777966,-5.987513214418485 A 183.3343673115922 183.3343673115922 0 0 1 51.75802682193793,-11.143607146043564 L 51.64910041314323,-12.137656962434619 A 184.3343673115922 184.3343673115922 0 0 0 24.018736134675446,-6.953439040707552 Z M 87.46075285867502,-12.561864208745021 L 87.37540376167108,-11.565513100128896 A 183.3343673115922 183.3343673115922 0 0 1 114.97030055671297,-7.061814933257009 L 114.26270295574523,-4.146458070863539 L 121.89073283579236,-5.896646674731184 L 115.91376402466997,-10.948957416448302 L 115.20616642370223,-8.033600554054832 A 184.3343673115922 184.3343673115922 0 0 0 87.46075285867502,-12.561864208745021"/><text text-anchor="middle" pointer-events="none" font-size="8px" fill="#000000" x="69.55052219609" y="-9.721584191601664" font-family="sans-serif">WROTE</text></g><g class="relationship" transform="translate(103.55643920863713 73.12462098908044) rotate(285.802775991935)"><path class="outline" fill="#A5ABB6" stroke="none" d="M 25 0.5 L 42.31284015841965 0.5 L 42.31284015841965 -0.5 L 25 -0.5 Z M 89.20346515841965 0.5 L 106.5163053168393 0.5 L 106.5163053168393 3.5 L 113.5163053168393 0 L 106.5163053168393 -3.5 L 106.5163053168393 -0.5 L 89.20346515841965 -0.5 Z"/><text text-anchor="middle" pointer-events="none" font-size="8px" fill="#000000" x="65.75815265841965" y="3" font-family="sans-serif">DIRECTED</text></g><g class="relationship" transform="translate(103.55643920863713 73.12462098908044) rotate(236.24230578082683)"><path class="outline" fill="#A5ABB6" stroke="none" d="M 25 0.5 L 68.6569969510506 0.5 L 68.6569969510506 -0.5 L 25 -0.5 Z M 115.5476219510506 0.5 L 159.2046189021012 0.5 L 159.2046189021012 3.5 L 166.2046189021012 0 L 159.2046189021012 -3.5 L 159.2046189021012 -0.5 L 115.5476219510506 -0.5 Z"/><text text-anchor="middle" pointer-events="none" font-size="8px" fill="#000000" x="92.1023094510506" y="3" transform="rotate(180 92.1023094510506 0)" font-family="sans-serif">DIRECTED</text></g><g class="relationship" transform="translate(147.87893511545028 33.06800092153161) rotate(366.58397196543143)"><path class="outline" fill="#A5ABB6" stroke="none" d="M 24.018736134675446,6.953439040707552 L 24.277555179777966,5.987513214418485 A 91.05323578645664 91.05323578645664 0 0 0 25.20611178552538,6.231080234785793 L 24.95749069327678,7.199681056842593 A 92.05323578645664 92.05323578645664 0 0 1 24.018736134675446,6.953439040707552 Z M 67.68288657845412,7.926837918156849 L 67.46736976701956,6.9503377881061255 A 91.05323578645664 91.05323578645664 0 0 0 68.40367688837757,6.738509466151963 L 67.72627723339752,3.8159883443407088 L 75.33579278176717,5.644997124833727 L 69.30687642835096,10.635204295233635 L 68.62947677337091,7.7126831734223815 A 92.05323578645664 92.05323578645664 0 0 1 67.68288657845412,7.926837918156849"/><text text-anchor="middle" pointer-events="none" font-size="8px" fill="#000000" x="46.2859192144512" y="12.576820349778515" font-family="sans-serif">PRODU…</text></g><g class="relationship" transform="translate(147.87893511545028 33.06800092153161) rotate(366.58397196543143)"><path class="outline" fill="#A5ABB6" stroke="none" d="M 24.018736134675446,-6.953439040707552 L 24.277555179777966,-5.987513214418485 A 91.05323578645664 91.05323578645664 0 0 1 28.65037967157172,-7.0441543957064 L 28.439585547868468,-8.021684874725949 A 92.05323578645664 92.05323578645664 0 0 0 24.018736134675446,-6.953439040707552 Z M 64.17483658862471,-8.629874276994045 L 63.9974287036158,-7.645736866701824 A 91.05323578645664 91.05323578645664 0 0 1 68.40367688837757,-6.738509466151963 L 67.72627723339752,-3.8159883443407088 L 75.33579278176717,-5.644997124833727 L 69.30687642835096,-10.635204295233635 L 68.62947677337091,-7.7126831734223815 A 92.05323578645664 92.05323578645664 0 0 0 64.17483658862471,-8.629874276994045"/><text text-anchor="middle" pointer-events="none" font-size="8px" fill="#000000" x="46.28591921445117" y="-6.576820349778515" font-family="sans-serif">WROTE</text></g><g class="relationship" transform="translate(147.87893511545028 33.06800092153161) rotate(265.94991401251116)"><path class="outline" fill="#A5ABB6" stroke="none" d="M 25 0.5 L 26.67227285702692 0.5 L 26.67227285702692 -0.5 L 25 -0.5 Z M 59.78555410702692 0.5 L 61.45782696405384 0.5 L 61.45782696405384 3.5 L 68.45782696405384 0 L 61.45782696405384 -3.5 L 61.45782696405384 -0.5 L 59.78555410702692 -0.5 Z"/><text text-anchor="middle" pointer-events="none" font-size="8px" fill="#000000" x="43.22891348202692" y="3" transform="rotate(180 43.22891348202692 0)" font-family="sans-serif">DIRE…</text></g><g class="relationship" transform="translate(147.87893511545028 33.06800092153161) rotate(218.2990125038844)"><path class="outline" fill="#A5ABB6" stroke="none" d="M 25 0.5 L 68.98608610456293 0.5 L 68.98608610456293 -0.5 L 25 -0.5 Z M 115.87671110456293 0.5 L 159.86279720912586 0.5 L 159.86279720912586 3.5 L 166.86279720912586 0 L 159.86279720912586 -3.5 L 159.86279720912586 -0.5 L 115.87671110456293 -0.5 Z"/><text text-anchor="middle" pointer-events="none" font-size="8px" fill="#000000" x="92.43139860456293" y="3" transform="rotate(180 92.43139860456293 0)" font-family="sans-serif">DIRECTED</text></g><g class="relationship" transform="translate(160.3448188038932 91.57606269316739) rotate(331.4612997531563)"><path class="outline" fill="#A5ABB6" stroke="none" d="M 25 0.5 L 27.21331598725741 0.5 L 27.21331598725741 -0.5 L 25 -0.5 Z M 64.3265972372574 0.5 L 66.53991322451482 0.5 L 66.53991322451482 3.5 L 73.53991322451482 0 L 66.53991322451482 -3.5 L 66.53991322451482 -0.5 L 64.3265972372574 -0.5 Z"/><text text-anchor="middle" pointer-events="none" font-size="8px" fill="#000000" x="45.76995661225741" y="3" font-family="sans-serif">PROD…</text></g><g class="relationship" transform="translate(160.3448188038932 91.57606269316739) rotate(227.41871061869392)"><path class="outline" fill="#A5ABB6" stroke="none" d="M 25 0.5 L 91.08584287340953 0.5 L 91.08584287340953 -0.5 L 25 -0.5 Z M 142.86709287340955 0.5 L 208.95293574681907 0.5 L 208.95293574681907 3.5 L 215.95293574681907 0 L 208.95293574681907 -3.5 L 208.95293574681907 -0.5 L 142.86709287340955 -0.5 Z"/><text text-anchor="middle" pointer-events="none" font-size="8px" fill="#000000" x="116.97646787340953" y="3" transform="rotate(180 116.97646787340953 0)" font-family="sans-serif">PRODUCED</text></g></g><g class="layer nodes"><g class="node" transform="translate(248.33366908572685,260.0683872919142)"><circle class="outline" cx="0" cy="0" r="25" fill="#57C7E3" stroke="#23b3d7" stroke-width="2px"/><text text-anchor="middle" pointer-events="none" font-family="sans-serif" dy="1.5625" font-size="25" fill="#2A2C34"/><text text-anchor="middle" pointer-events="none" font-family="sans-serif" dy="1.5625" font-size="25" fill="#2A2C34"/><text text-anchor="middle" pointer-events="none" font-family="sans-serif" dy="1.5625" font-size="25" fill="#2A2C34"/><text text-anchor="middle" pointer-events="none" x="0" y="-5" font-size="10px" fill="#2A2C34" font-family="sans-serif"> The</text><text text-anchor="middle" pointer-events="none" x="0" y="5" font-size="10px" fill="#2A2C34" font-family="sans-serif"> Matrix</text><text text-anchor="middle" pointer-events="none" x="0" y="15" font-size="10px" fill="#2A2C34" font-family="sans-serif"> Revol…</text></g><g class="node" transform="translate(-2.6925039608580192,-85.84194268033764)"><circle class="outline" cx="0" cy="0" r="25" fill="#57C7E3" stroke="#23b3d7" stroke-width="2px"/><text text-anchor="middle" pointer-events="none" font-family="sans-serif" dy="1.5625" font-size="25" fill="#2A2C34"/><text text-anchor="middle" pointer-events="none" font-family="sans-serif" dy="1.5625" font-size="25" fill="#2A2C34"/><text text-anchor="middle" pointer-events="none" font-family="sans-serif" dy="1.5625" font-size="25" fill="#2A2C34"/><text text-anchor="middle" pointer-events="none" x="0" y="-5" font-size="10px" fill="#2A2C34" font-family="sans-serif"> The</text><text text-anchor="middle" pointer-events="none" x="0" y="5" font-size="10px" fill="#2A2C34" font-family="sans-serif"> Matrix</text><text text-anchor="middle" pointer-events="none" x="0" y="15" font-size="10px" fill="#2A2C34" font-family="sans-serif"> Reloa…</text></g><g class="node selected" transform="translate(19.149521399137043,57.7782971802365)"><circle class="outline" cx="0" cy="0" r="25" fill="#57C7E3" stroke="#23b3d7" stroke-width="2px"/><text text-anchor="middle" pointer-events="none" font-family="sans-serif" dy="1.5625" font-size="25" fill="#2A2C34"/><text text-anchor="middle" pointer-events="none" font-family="sans-serif" dy="1.5625" font-size="25" fill="#2A2C34"/><text text-anchor="middle" pointer-events="none" x="0" y="0" font-size="10px" fill="#2A2C34" font-family="sans-serif"> The</text><text text-anchor="middle" pointer-events="none" x="0" y="10" font-size="10px" fill="#2A2C34" font-family="sans-serif"> Matrix</text></g><g class="node" transform="translate(-92.11608653169034,266.37864236207884)"><circle class="outline" cx="0" cy="0" r="25" fill="#F79767" stroke="#f36924" stroke-width="2px"/><text text-anchor="middle" pointer-events="none" font-family="sans-serif" dy="1.5625" font-size="25" fill="#FFFFFF"/><text text-anchor="middle" pointer-events="none" font-family="sans-serif" dy="1.5625" font-size="25" fill="#FFFFFF"/><text text-anchor="middle" pointer-events="none" x="0" y="0" font-size="10px" fill="#FFFFFF" font-family="sans-serif"> Keanu</text><text text-anchor="middle" pointer-events="none" x="0" y="10" font-size="10px" fill="#FFFFFF" font-family="sans-serif"> Reeves</text></g><g class="node" transform="translate(56.4111552575298,136.72439211505662)"><circle class="outline" cx="0" cy="0" r="25" fill="#F79767" stroke="#f36924" stroke-width="2px"/><text text-anchor="middle" pointer-events="none" font-family="sans-serif" dy="1.5625" font-size="25" fill="#FFFFFF"/><text text-anchor="middle" pointer-events="none" x="0" y="5" font-size="10px" fill="#FFFFFF" font-family="sans-serif"> Carrie-A…</text></g><g class="node" transform="translate(115.90910470879214,131.75933725025465)"><circle class="outline" cx="0" cy="0" r="25" fill="#F79767" stroke="#f36924" stroke-width="2px"/><text text-anchor="middle" pointer-events="none" font-family="sans-serif" dy="1.5625" font-size="25" fill="#FFFFFF"/><text text-anchor="middle" pointer-events="none" font-family="sans-serif" dy="1.5625" font-size="25" fill="#FFFFFF"/><text text-anchor="middle" pointer-events="none" x="0" y="0" font-size="10px" fill="#FFFFFF" font-family="sans-serif"> Laurence</text><text text-anchor="middle" pointer-events="none" x="0" y="10" font-size="10px" fill="#FFFFFF" font-family="sans-serif"> Fishbur…</text></g><g class="node" transform="translate(249.82992162476972,-68.64251084619107)"><circle class="outline" cx="0" cy="0" r="25" fill="#F79767" stroke="#f36924" stroke-width="2px"/><text text-anchor="middle" pointer-events="none" font-family="sans-serif" dy="1.5625" font-size="25" fill="#FFFFFF"/><text text-anchor="middle" pointer-events="none" font-family="sans-serif" dy="1.5625" font-size="25" fill="#FFFFFF"/><text text-anchor="middle" pointer-events="none" x="0" y="0" font-size="10px" fill="#FFFFFF" font-family="sans-serif"> Hugo</text><text text-anchor="middle" pointer-events="none" x="0" y="10" font-size="10px" fill="#FFFFFF" font-family="sans-serif"> Weaving</text></g><g class="node" transform="translate(103.55643920863713,73.12462098908044)"><circle class="outline" cx="0" cy="0" r="25" fill="#F79767" stroke="#f36924" stroke-width="2px"/><text text-anchor="middle" pointer-events="none" font-family="sans-serif" dy="1.5625" font-size="25" fill="#FFFFFF"/><text text-anchor="middle" pointer-events="none" font-family="sans-serif" dy="1.5625" font-size="25" fill="#FFFFFF"/><text text-anchor="middle" pointer-events="none" x="0" y="0" font-size="10px" fill="#FFFFFF" font-family="sans-serif"> Lilly</text><text text-anchor="middle" pointer-events="none" x="0" y="10" font-size="10px" fill="#FFFFFF" font-family="sans-serif"> Wacho…</text></g><g class="node" transform="translate(147.87893511545028,33.06800092153161)"><circle class="outline" cx="0" cy="0" r="25" fill="#F79767" stroke="#f36924" stroke-width="2px"/><text text-anchor="middle" pointer-events="none" font-family="sans-serif" dy="1.5625" font-size="25" fill="#FFFFFF"/><text text-anchor="middle" pointer-events="none" font-family="sans-serif" dy="1.5625" font-size="25" fill="#FFFFFF"/><text text-anchor="middle" pointer-events="none" x="0" y="0" font-size="10px" fill="#FFFFFF" font-family="sans-serif"> Lana</text><text text-anchor="middle" pointer-events="none" x="0" y="10" font-size="10px" fill="#FFFFFF" font-family="sans-serif"> Wacho…</text></g><g class="node" transform="translate(160.3448188038932,91.57606269316739)"><circle class="outline" cx="0" cy="0" r="25" fill="#F79767" stroke="#f36924" stroke-width="2px"/><text text-anchor="middle" pointer-events="none" font-family="sans-serif" dy="1.5625" font-size="25" fill="#FFFFFF"/><text text-anchor="middle" pointer-events="none" x="0" y="5" font-size="10px" fill="#FFFFFF" font-family="sans-serif"> Joel Silver</text></g><g class="node" transform="translate(-97.87724892491639,69.07491409043332)"><circle class="outline" cx="0" cy="0" r="25" fill="#F79767" stroke="#f36924" stroke-width="2px"/><text text-anchor="middle" pointer-events="none" font-family="sans-serif" dy="1.5625" font-size="25" fill="#FFFFFF"/><text text-anchor="middle" pointer-events="none" font-family="sans-serif" dy="1.5625" font-size="25" fill="#FFFFFF"/><text text-anchor="middle" pointer-events="none" x="0" y="0" font-size="10px" fill="#FFFFFF" font-family="sans-serif"> Emil</text><text text-anchor="middle" pointer-events="none" x="0" y="10" font-size="10px" fill="#FFFFFF" font-family="sans-serif"> Eifrem</text></g><g class="node" transform="translate(141.27815057734682,-60.1564329159799)"><circle class="outline" cx="0" cy="0" r="25" fill="#57C7E3" stroke="#23b3d7" stroke-width="2px"/><text text-anchor="middle" pointer-events="none" font-family="sans-serif" dy="1.5625" font-size="25" fill="#2A2C34"/><text text-anchor="middle" pointer-events="none" font-family="sans-serif" dy="1.5625" font-size="25" fill="#2A2C34"/><text text-anchor="middle" pointer-events="none" x="0" y="0" font-size="10px" fill="#2A2C34" font-family="sans-serif"> Cloud</text><text text-anchor="middle" pointer-events="none" x="0" y="10" font-size="10px" fill="#2A2C34" font-family="sans-serif"> Atlas</text></g><g class="node" transform="translate(246.91160212064935,44.49839787762352)"><circle class="outline" cx="0" cy="0" r="25" fill="#57C7E3" stroke="#23b3d7" stroke-width="2px"/><text text-anchor="middle" pointer-events="none" font-family="sans-serif" dy="1.5625" font-size="25" fill="#2A2C34"/><text text-anchor="middle" pointer-events="none" font-family="sans-serif" dy="1.5625" font-size="25" fill="#2A2C34"/><text text-anchor="middle" pointer-events="none" x="0" y="0" font-size="10px" fill="#2A2C34" font-family="sans-serif"> V for</text><text text-anchor="middle" pointer-events="none" x="0" y="10" font-size="10px" fill="#2A2C34" font-family="sans-serif"> Vendetta</text></g></g></svg>