<svg xmlns="http://www.w3.org/2000/svg" width="809.6383056640625" height="834.3095703125" viewBox="-306.7417907714844 -306.1379699707031 809.6383056640625 834.3095703125"><title>Neo4j Graph Visualization</title><desc>Created using Neo4j (http://www.neo4j.com/)</desc><g class="layer relationships"><g class="relationship" transform="translate(-163.10907585776943 -75.71685736941733) rotate(183.74238442223793)"><path class="outline" fill="#A5ABB6" stroke="none" d="M 25 0.5 L 31.15758491711862 0.5 L 31.15758491711862 -0.5 L 25 -0.5 Z M 76.72008491711861 0.5 L 82.87766983423724 0.5 L 82.87766983423724 3.5 L 89.87766983423724 0 L 82.87766983423724 -3.5 L 82.87766983423724 -0.5 L 76.72008491711861 -0.5 Z"/><text text-anchor="middle" pointer-events="none" font-size="8px" fill="#000000" x="53.93883491711862" y="3" transform="rotate(180 53.93883491711862 0)" font-family="sans-serif">ACTED_IN</text></g><g class="relationship" transform="translate(-163.10907585776943 -75.71685736941733) rotate(403.9119073522578)"><path class="outline" fill="#A5ABB6" stroke="none" d="M 25 0.5 L 30.149483901568253 0.5 L 30.149483901568253 -0.5 L 25 -0.5 Z M 77.04010890156826 0.5 L 82.1895928031365 0.5 L 82.1895928031365 3.5 L 89.1895928031365 0 L 82.1895928031365 -3.5 L 82.1895928031365 -0.5 L 77.04010890156826 -0.5 Z"/><text text-anchor="middle" pointer-events="none" font-size="8px" fill="#000000" x="53.59479640156825" y="3" font-family="sans-serif">DIRECTED</text></g><g class="relationship" transform="translate(-163.10907585776943 -75.71685736941733) rotate(291.82457252433363)"><path class="outline" fill="#A5ABB6" stroke="none" d="M 25 0.5 L 39.61781947234873 0.5 L 39.61781947234873 -0.5 L 25 -0.5 Z M 86.50844447234873 0.5 L 101.12626394469746 0.5 L 101.12626394469746 3.5 L 108.12626394469746 0 L 101.12626394469746 -3.5 L 101.12626394469746 -0.5 L 86.50844447234873 -0.5 Z"/><text text-anchor="middle" pointer-events="none" font-size="8px" fill="#000000" x="63.06313197234873" y="3" font-family="sans-serif">DIRECTED</text></g><g class="relationship" transform="translate(-87.1509709913294 -106.96752381745331) rotate(446.73281261275406)"><path class="outline" fill="#A5ABB6" stroke="none" d="M 24.018736134675446,-6.953439040707552 L 24.277555179777966,-5.987513214418485 A 112.9457409638217 112.9457409638217 0 0 1 34.05663946850282,-8.148134775690082 L 33.884402566341464,-9.13319033226233 A 113.9457409638217 113.9457409638217 0 0 0 24.018736134675446,-6.953439040707552 Z M 69.66256270207867,-9.6853788306843 L 69.5208066473019,-8.6954772088379 A 112.9457409638217 112.9457409638217 0 0 1 79.36191010242845,-6.837667250173357 L 78.67524819174308,-3.9173084673499323 L 86.290524247464,-5.722182589044737 L 80.2774593166756,-10.73147896060459 L 79.59079740599023,-7.8111201777811665 A 113.9457409638217 113.9457409638217 0 0 0 69.66256270207867,-9.6853788306843"/><text text-anchor="middle" pointer-events="none" font-size="8px" fill="#000000" x="51.75938779107483" y="-7.322537132408044" font-family="sans-serif">WROTE</text></g><g class="relationship" transform="translate(-87.1509709913294 -106.96752381745331) rotate(254.00576468501993)"><path class="outline" fill="#A5ABB6" stroke="none" d="M 25 0.5 L 25.969461749292208 0.5 L 25.969461749292208 -0.5 L 25 -0.5 Z M 63.08274299929221 0.5 L 64.05220474858442 0.5 L 64.05220474858442 3.5 L 71.05220474858442 0 L 64.05220474858442 -3.5 L 64.05220474858442 -0.5 L 63.08274299929221 -0.5 Z"/><text text-anchor="middle" pointer-events="none" font-size="8px" fill="#000000" x="44.52610237429221" y="3" transform="rotate(180 44.52610237429221 0)" font-family="sans-serif">PROD…</text></g><g class="relationship" transform="translate(-87.1509709913294 -106.96752381745331) rotate(446.73281261275406)"><path class="outline" fill="#A5ABB6" stroke="none" d="M 24.018736134675446,6.953439040707552 L 24.277555179777966,5.987513214418485 A 112.9457409638217 112.9457409638217 0 0 0 26.26200324441056,6.499992515434229 L 26.020754123128967,7.470455735489921 A 113.9457409638217 113.9457409638217 0 0 1 24.018736134675446,6.953439040707552 Z M 77.57377781020888,8.266108352362352 L 77.36259208617714,7.288662399910152 A 112.9457409638217 112.9457409638217 0 0 0 79.36191010242845,6.837667250173357 L 78.67524819174308,3.9173084673499323 L 86.290524247464,5.722182589044737 L 80.2774593166756,10.73147896060459 L 79.59079740599023,7.8111201777811665 A 113.9457409638217 113.9457409638217 0 0 1 77.57377781020888,8.266108352362352"/><text text-anchor="middle" pointer-events="none" font-size="8px" fill="#000000" x="51.75938779107488" y="13.322537132408044" font-family="sans-serif">PRODUCED</text></g><g class="relationship" transform="translate(-23.994174728022177 -119.72710135981764) rotate(221.60117799841083)"><path class="outline" fill="#A5ABB6" stroke="none" d="M 25 0.5 L 30.535121887397572 0.5 L 30.535121887397572 -0.5 L 25 -0.5 Z M 82.31637188739757 0.5 L 87.85149377479514 0.5 L 87.85149377479514 3.5 L 94.85149377479514 0 L 87.85149377479514 -3.5 L 87.85149377479514 -0.5 L 82.31637188739757 -0.5 Z"/><text text-anchor="middle" pointer-events="none" font-size="8px" fill="#000000" x="56.42574688739757" y="3" transform="rotate(180 56.42574688739757 0)" font-family="sans-serif">PRODUCED</text></g><g class="relationship" transform="translate(-23.994174728022177 -119.72710135981764) rotate(474.770282632044)"><path class="outline" fill="#A5ABB6" stroke="none" d="M 24.018736134675446,-6.953439040707552 L 24.277555179777966,-5.987513214418485 A 162.65272568773963 162.65272568773963 0 0 1 38.63168378386867,-9.146217351250897 L 38.46111489592397,-10.131563105017221 A 163.65272568773963 163.65272568773963 0 0 0 24.018736134675446,-6.953439040707552 Z M 90.17915111137566,-10.789321945668632 L 90.0336969328049,-9.799956956427394 A 162.65272568773963 162.65272568773963 0 0 1 104.4635155595292,-7.007331989365433 L 103.76100651015028,-4.090744765307026 L 111.38597059056197,-5.8542420781576805 L 105.40019429203443,-10.896114954776642 L 104.69768524265551,-7.979527730718235 A 163.65272568773963 163.65272568773963 0 0 0 90.17915111137566,-10.789321945668632"/><text text-anchor="middle" pointer-events="none" font-size="8px" fill="#000000" x="64.30034182001914" y="-9.016576914573193" transform="rotate(180 64.30034182001914 -12.016576914573193)" font-family="sans-serif">PRODUCED</text></g><g class="relationship" transform="translate(-23.994174728022177 -119.72710135981764) rotate(474.770282632044)"><path class="outline" fill="#A5ABB6" stroke="none" d="M 24.018736134675446,6.953439040707552 L 24.277555179777966,5.987513214418485 A 162.65272568773963 162.65272568773963 0 0 0 46.52435399473015,10.313886731860975 L 46.402309779074145,11.306411396252201 A 163.65272568773963 163.65272568773963 0 0 1 24.018736134675446,6.953439040707552 Z M 82.210645808643,11.761827945603471 L 82.11388318268308,10.76652045833265 A 162.65272568773963 162.65272568773963 0 0 0 104.4635155595292,7.007331989365433 L 103.76100651015028,4.090744765307026 L 111.38597059056197,5.8542420781576805 L 105.40019429203443,10.896114954776642 L 104.69768524265551,7.979527730718235 A 163.65272568773963 163.65272568773963 0 0 1 82.210645808643,11.761827945603471"/><text text-anchor="middle" pointer-events="none" font-size="8px" fill="#000000" x="64.30034182001916" y="15.016576914573193" transform="rotate(180 64.30034182001916 12.016576914573193)" font-family="sans-serif">WROTE</text></g><g class="relationship" transform="translate(-64.5004517409627 130.0503862947108) rotate(262.64142376940396)"><path class="outline" fill="#A5ABB6" stroke="none" d="M 25 0.5 L 37.52973269566151 0.5 L 37.52973269566151 -0.5 L 25 -0.5 Z M 83.09223269566151 0.5 L 95.62196539132302 0.5 L 95.62196539132302 3.5 L 102.62196539132302 0 L 95.62196539132302 -3.5 L 95.62196539132302 -0.5 L 83.09223269566151 -0.5 Z"/><text text-anchor="middle" pointer-events="none" font-size="8px" fill="#000000" x="60.31098269566151" y="3" transform="rotate(180 60.31098269566151 0)" font-family="sans-serif">ACTED_IN</text></g><g class="relationship" transform="translate(44.23644373453938 33.86557993160408) rotate(193.65425976005912)"><path class="outline" fill="#A5ABB6" stroke="none" d="M 25 0.5 L 34.96960054047065 0.5 L 34.96960054047065 -0.5 L 25 -0.5 Z M 86.75085054047065 0.5 L 96.7204510809413 0.5 L 96.7204510809413 3.5 L 103.7204510809413 0 L 96.7204510809413 -3.5 L 96.7204510809413 -0.5 L 86.75085054047065 -0.5 Z"/><text text-anchor="middle" pointer-events="none" font-size="8px" fill="#000000" x="60.86022554047065" y="3" transform="rotate(180 60.86022554047065 0)" font-family="sans-serif">PRODUCED</text></g><g class="relationship" transform="translate(5.275444683704022 98.74516180582086) rotate(227.88595755906567)"><path class="outline" fill="#A5ABB6" stroke="none" d="M 25 0.5 L 37.93024320385028 0.5 L 37.93024320385028 -0.5 L 25 -0.5 Z M 83.49274320385028 0.5 L 96.42298640770056 0.5 L 96.42298640770056 3.5 L 103.42298640770056 0 L 96.42298640770056 -3.5 L 96.42298640770056 -0.5 L 83.49274320385028 -0.5 Z"/><text text-anchor="middle" pointer-events="none" font-size="8px" fill="#000000" x="60.71149320385028" y="3" transform="rotate(180 60.71149320385028 0)" font-family="sans-serif">ACTED_IN</text></g><g class="relationship" transform="translate(38.314777962184955 -41.47003998984242) rotate(519.3326525545216)"><path class="outline" fill="#A5ABB6" stroke="none" d="M 25 0.5 L 37.3971920084077 0.5 L 37.3971920084077 -0.5 L 25 -0.5 Z M 82.9596920084077 0.5 L 95.3568840168154 0.5 L 95.3568840168154 3.5 L 102.3568840168154 0 L 95.3568840168154 -3.5 L 95.3568840168154 -0.5 L 82.9596920084077 -0.5 Z"/><text text-anchor="middle" pointer-events="none" font-size="8px" fill="#000000" x="60.1784420084077" y="3" transform="rotate(180 60.1784420084077 0)" font-family="sans-serif">ACTED_IN</text></g><g class="relationship" transform="translate(-142.571800986133 116.47980786094685) rotate(298.64529820638285)"><path class="outline" fill="#A5ABB6" stroke="none" d="M 25 0.5 L 38.09873421618022 0.5 L 38.09873421618022 -0.5 L 25 -0.5 Z M 83.66123421618022 0.5 L 96.75996843236044 0.5 L 96.75996843236044 3.5 L 103.75996843236044 0 L 96.75996843236044 -3.5 L 96.75996843236044 -0.5 L 83.66123421618022 -0.5 Z"/><text text-anchor="middle" pointer-events="none" font-size="8px" fill="#000000" x="60.87998421618022" y="3" font-family="sans-serif">ACTED_IN</text></g><g class="relationship" transform="translate(-193.21216889478524 52.29171030664553) rotate(336.5197127686092)"><path class="outline" fill="#A5ABB6" stroke="none" d="M 25 0.5 L 34.973882886694284 0.5 L 34.973882886694284 -0.5 L 25 -0.5 Z M 80.53638288669428 0.5 L 90.51026577338857 0.5 L 90.51026577338857 3.5 L 97.51026577338857 0 L 90.51026577338857 -3.5 L 90.51026577338857 -0.5 L 80.53638288669428 -0.5 Z"/><text text-anchor="middle" pointer-events="none" font-size="8px" fill="#000000" x="57.755132886694284" y="3" font-family="sans-serif">ACTED_IN</text></g></g><g class="layer nodes"><g class="node" transform="translate(294.1096110419441,178.69620427340433)"><circle class="outline" cx="0" cy="0" r="25" fill="#F79767" stroke="#f36924" stroke-width="2px"/><text text-anchor="middle" pointer-events="none" font-family="sans-serif" dy="1.5625" font-size="25" fill="#FFFFFF"/><text text-anchor="middle" pointer-events="none" font-family="sans-serif" dy="1.5625" font-size="25" fill="#FFFFFF"/><text text-anchor="middle" pointer-events="none" x="0" y="0" font-size="10px" fill="#FFFFFF" font-family="sans-serif"> Tom</text><text text-anchor="middle" pointer-events="none" x="0" y="10" font-size="10px" fill="#FFFFFF" font-family="sans-serif"> Tykwer</text></g><g class="node" transform="translate(370.38109287001504,385.287657860515)"><circle class="outline" cx="0" cy="0" r="25" fill="#F79767" stroke="#f36924" stroke-width="2px"/><text text-anchor="middle" pointer-events="none" font-family="sans-serif" dy="1.5625" font-size="25" fill="#FFFFFF"/><text text-anchor="middle" pointer-events="none" font-family="sans-serif" dy="1.5625" font-size="25" fill="#FFFFFF"/><text text-anchor="middle" pointer-events="none" x="0" y="0" font-size="10px" fill="#FFFFFF" font-family="sans-serif"> Lana</text><text text-anchor="middle" pointer-events="none" x="0" y="10" font-size="10px" fill="#FFFFFF" font-family="sans-serif"> Wacho…</text></g><g class="node" transform="translate(473.8964901116871,242.1270985416929)"><circle class="outline" cx="0" cy="0" r="25" fill="#F79767" stroke="#f36924" stroke-width="2px"/><text text-anchor="middle" pointer-events="none" font-family="sans-serif" dy="1.5625" font-size="25" fill="#FFFFFF"/><text text-anchor="middle" pointer-events="none" font-family="sans-serif" dy="1.5625" font-size="25" fill="#FFFFFF"/><text text-anchor="middle" pointer-events="none" x="0" y="0" font-size="10px" fill="#FFFFFF" font-family="sans-serif"> Andy</text><text text-anchor="middle" pointer-events="none" x="0" y="10" font-size="10px" fill="#FFFFFF" font-family="sans-serif"> Wacho…</text></g><g class="node" transform="translate(310.03648278726837,-16.882356890720185)"><circle class="outline" cx="0" cy="0" r="25" fill="#F79767" stroke="#f36924" stroke-width="2px"/><text text-anchor="middle" pointer-events="none" font-family="sans-serif" dy="1.5625" font-size="25" fill="#FFFFFF"/><text text-anchor="middle" pointer-events="none" font-family="sans-serif" dy="1.5625" font-size="25" fill="#FFFFFF"/><text text-anchor="middle" pointer-events="none" x="0" y="0" font-size="10px" fill="#FFFFFF" font-family="sans-serif"> James</text><text text-anchor="middle" pointer-events="none" x="0" y="10" font-size="10px" fill="#FFFFFF" font-family="sans-serif"> Marshall</text></g><g class="node" transform="translate(468.6562226073943,93.69639911653445)"><circle class="outline" cx="0" cy="0" r="25" fill="#F79767" stroke="#f36924" stroke-width="2px"/><text text-anchor="middle" pointer-events="none" font-family="sans-serif" dy="1.5625" font-size="25" fill="#FFFFFF"/><text text-anchor="middle" pointer-events="none" font-family="sans-serif" dy="1.5625" font-size="25" fill="#FFFFFF"/><text text-anchor="middle" pointer-events="none" x="0" y="0" font-size="10px" fill="#FFFFFF" font-family="sans-serif"> Lana</text><text text-anchor="middle" pointer-events="none" x="0" y="10" font-size="10px" fill="#FFFFFF" font-family="sans-serif"> Wacho…</text></g><g class="node" transform="translate(467.65184901115776,-67.3236072895845)"><circle class="outline" cx="0" cy="0" r="25" fill="#F79767" stroke="#f36924" stroke-width="2px"/><text text-anchor="middle" pointer-events="none" font-family="sans-serif" dy="1.5625" font-size="25" fill="#FFFFFF"/><text text-anchor="middle" pointer-events="none" font-family="sans-serif" dy="1.5625" font-size="25" fill="#FFFFFF"/><text text-anchor="middle" pointer-events="none" x="0" y="0" font-size="10px" fill="#FFFFFF" font-family="sans-serif"> Lilly</text><text text-anchor="middle" pointer-events="none" x="0" y="10" font-size="10px" fill="#FFFFFF" font-family="sans-serif"> Wacho…</text></g><g class="node" transform="translate(203.46783391322018,-277.1379661134078)"><circle class="outline" cx="0" cy="0" r="25" fill="#F79767" stroke="#f36924" stroke-width="2px"/><text text-anchor="middle" pointer-events="none" font-family="sans-serif" dy="1.5625" font-size="25" fill="#FFFFFF"/><text text-anchor="middle" pointer-events="none" font-family="sans-serif" dy="1.5625" font-size="25" fill="#FFFFFF"/><text text-anchor="middle" pointer-events="none" x="0" y="0" font-size="10px" fill="#FFFFFF" font-family="sans-serif"> Tom</text><text text-anchor="middle" pointer-events="none" x="0" y="10" font-size="10px" fill="#FFFFFF" font-family="sans-serif"> Tykwer</text></g><g class="node" transform="translate(345.27105672874006,-195.15472895729303)"><circle class="outline" cx="0" cy="0" r="25" fill="#F79767" stroke="#f36924" stroke-width="2px"/><text text-anchor="middle" pointer-events="none" font-family="sans-serif" dy="1.5625" font-size="25" fill="#FFFFFF"/><text text-anchor="middle" pointer-events="none" font-family="sans-serif" dy="1.5625" font-size="25" fill="#FFFFFF"/><text text-anchor="middle" pointer-events="none" x="0" y="0" font-size="10px" fill="#FFFFFF" font-family="sans-serif"> James</text><text text-anchor="middle" pointer-events="none" x="0" y="10" font-size="10px" fill="#FFFFFF" font-family="sans-serif"> Marshall</text></g><g class="node" transform="translate(-87.1509709913294,-106.96752381745331)"><circle class="outline" cx="0" cy="0" r="25" fill="#F79767" stroke="#f36924" stroke-width="2px"/><text text-anchor="middle" pointer-events="none" font-family="sans-serif" dy="1.5625" font-size="25" fill="#FFFFFF"/><text text-anchor="middle" pointer-events="none" font-family="sans-serif" dy="1.5625" font-size="25" fill="#FFFFFF"/><text text-anchor="middle" pointer-events="none" x="0" y="0" font-size="10px" fill="#FFFFFF" font-family="sans-serif"> Lilly</text><text text-anchor="middle" pointer-events="none" x="0" y="10" font-size="10px" fill="#FFFFFF" font-family="sans-serif"> Wacho…</text></g><g class="node" transform="translate(-23.994174728022177,-119.72710135981764)"><circle class="outline" cx="0" cy="0" r="25" fill="#F79767" stroke="#f36924" stroke-width="2px"/><text text-anchor="middle" pointer-events="none" font-family="sans-serif" dy="1.5625" font-size="25" fill="#FFFFFF"/><text text-anchor="middle" pointer-events="none" font-family="sans-serif" dy="1.5625" font-size="25" fill="#FFFFFF"/><text text-anchor="middle" pointer-events="none" x="0" y="0" font-size="10px" fill="#FFFFFF" font-family="sans-serif"> Lana</text><text text-anchor="middle" pointer-events="none" x="0" y="10" font-size="10px" fill="#FFFFFF" font-family="sans-serif"> Wacho…</text></g><g class="node" transform="translate(-163.10907585776943,-75.71685736941733)"><circle class="outline" cx="0" cy="0" r="25" fill="#F79767" stroke="#f36924" stroke-width="2px"/><text text-anchor="middle" pointer-events="none" font-family="sans-serif" dy="1.5625" font-size="25" fill="#FFFFFF"/><text text-anchor="middle" pointer-events="none" font-family="sans-serif" dy="1.5625" font-size="25" fill="#FFFFFF"/><text text-anchor="middle" pointer-events="none" x="0" y="0" font-size="10px" fill="#FFFFFF" font-family="sans-serif"> James</text><text text-anchor="middle" pointer-events="none" x="0" y="10" font-size="10px" fill="#FFFFFF" font-family="sans-serif"> Marshall</text></g><g class="node" transform="translate(-182.28158296447148,384.12985715117645)"><circle class="outline" cx="0" cy="0" r="25" fill="#F79767" stroke="#f36924" stroke-width="2px"/><text text-anchor="middle" pointer-events="none" font-family="sans-serif" dy="1.5625" font-size="25" fill="#FFFFFF"/><text text-anchor="middle" pointer-events="none" font-family="sans-serif" dy="1.5625" font-size="25" fill="#FFFFFF"/><text text-anchor="middle" pointer-events="none" x="0" y="0" font-size="10px" fill="#FFFFFF" font-family="sans-serif"> Tom</text><text text-anchor="middle" pointer-events="none" x="0" y="10" font-size="10px" fill="#FFFFFF" font-family="sans-serif"> Tykwer</text></g><g class="node" transform="translate(-21.746738061937076,499.1716185677755)"><circle class="outline" cx="0" cy="0" r="25" fill="#F79767" stroke="#f36924" stroke-width="2px"/><text text-anchor="middle" pointer-events="none" font-family="sans-serif" dy="1.5625" font-size="25" fill="#FFFFFF"/><text text-anchor="middle" pointer-events="none" font-family="sans-serif" dy="1.5625" font-size="25" fill="#FFFFFF"/><text text-anchor="middle" pointer-events="none" x="0" y="0" font-size="10px" fill="#FFFFFF" font-family="sans-serif"> Lana</text><text text-anchor="middle" pointer-events="none" x="0" y="10" font-size="10px" fill="#FFFFFF" font-family="sans-serif"> Wacho…</text></g><g class="node" transform="translate(205.70507980141826,490.6275929739811)"><circle class="outline" cx="0" cy="0" r="25" fill="#F79767" stroke="#f36924" stroke-width="2px"/><text text-anchor="middle" pointer-events="none" font-family="sans-serif" dy="1.5625" font-size="25" fill="#FFFFFF"/><text text-anchor="middle" pointer-events="none" font-family="sans-serif" dy="1.5625" font-size="25" fill="#FFFFFF"/><text text-anchor="middle" pointer-events="none" x="0" y="0" font-size="10px" fill="#FFFFFF" font-family="sans-serif"> Lilly</text><text text-anchor="middle" pointer-events="none" x="0" y="10" font-size="10px" fill="#FFFFFF" font-family="sans-serif"> Wacho…</text></g><g class="node" transform="translate(56.29891409442375,376.64299501154176)"><circle class="outline" cx="0" cy="0" r="25" fill="#F79767" stroke="#f36924" stroke-width="2px"/><text text-anchor="middle" pointer-events="none" font-family="sans-serif" dy="1.5625" font-size="25" fill="#FFFFFF"/><text text-anchor="middle" pointer-events="none" font-family="sans-serif" dy="1.5625" font-size="25" fill="#FFFFFF"/><text text-anchor="middle" pointer-events="none" x="0" y="0" font-size="10px" fill="#FFFFFF" font-family="sans-serif"> Tom</text><text text-anchor="middle" pointer-events="none" x="0" y="10" font-size="10px" fill="#FFFFFF" font-family="sans-serif"> Tykwer</text></g><g class="node" transform="translate(214.43352188417518,320.8502757348739)"><circle class="outline" cx="0" cy="0" r="25" fill="#F79767" stroke="#f36924" stroke-width="2px"/><text text-anchor="middle" pointer-events="none" font-family="sans-serif" dy="1.5625" font-size="25" fill="#FFFFFF"/><text text-anchor="middle" pointer-events="none" font-family="sans-serif" dy="1.5625" font-size="25" fill="#FFFFFF"/><text text-anchor="middle" pointer-events="none" x="0" y="0" font-size="10px" fill="#FFFFFF" font-family="sans-serif"> James</text><text text-anchor="middle" pointer-events="none" x="0" y="10" font-size="10px" fill="#FFFFFF" font-family="sans-serif"> Marshall</text></g><g class="node" transform="translate(-277.74178142257085,-83.2149798969281)"><circle class="outline" cx="0" cy="0" r="25" fill="#57C7E3" stroke="#23b3d7" stroke-width="2px"/><text text-anchor="middle" pointer-events="none" font-family="sans-serif" dy="1.5625" font-size="25" fill="#2A2C34"/><text text-anchor="middle" pointer-events="none" font-family="sans-serif" dy="1.5625" font-size="25" fill="#2A2C34"/><text text-anchor="middle" pointer-events="none" font-family="sans-serif" dy="1.5625" font-size="25" fill="#2A2C34"/><text text-anchor="middle" pointer-events="none" x="0" y="-5" font-size="10px" fill="#2A2C34" font-family="sans-serif"> A Few</text><text text-anchor="middle" pointer-events="none" x="0" y="5" font-size="10px" fill="#2A2C34" font-family="sans-serif"> Good</text><text text-anchor="middle" pointer-events="none" x="0" y="15" font-size="10px" fill="#2A2C34" font-family="sans-serif"> Men</text></g><g class="node" transform="translate(-80.84609483236734,3.4795128590247097)"><circle class="outline" cx="0" cy="0" r="25" fill="#57C7E3" stroke="#23b3d7" stroke-width="2px"/><text text-anchor="middle" pointer-events="none" font-family="sans-serif" dy="1.5625" font-size="25" fill="#2A2C34"/><text text-anchor="middle" pointer-events="none" font-family="sans-serif" dy="1.5625" font-size="25" fill="#2A2C34"/><text text-anchor="middle" pointer-events="none" x="0" y="0" font-size="10px" fill="#2A2C34" font-family="sans-serif"> V for</text><text text-anchor="middle" pointer-events="none" x="0" y="10" font-size="10px" fill="#2A2C34" font-family="sans-serif"> Vendetta</text></g><g class="node" transform="translate(-113.61725688958497,-199.30149236541394)"><circle class="outline" cx="0" cy="0" r="25" fill="#57C7E3" stroke="#23b3d7" stroke-width="2px"/><text text-anchor="middle" pointer-events="none" font-family="sans-serif" dy="1.5625" font-size="25" fill="#2A2C34"/><text text-anchor="middle" pointer-events="none" font-family="sans-serif" dy="1.5625" font-size="25" fill="#2A2C34"/><text text-anchor="middle" pointer-events="none" x="0" y="0" font-size="10px" fill="#2A2C34" font-family="sans-serif"> Ninja</text><text text-anchor="middle" pointer-events="none" x="0" y="10" font-size="10px" fill="#2A2C34" font-family="sans-serif"> Assassin</text></g><g class="node" transform="translate(-64.5004517409627,130.0503862947108)"><circle class="outline" cx="0" cy="0" r="25" fill="#F79767" stroke="#f36924" stroke-width="2px"/><text text-anchor="middle" pointer-events="none" font-family="sans-serif" dy="1.5625" font-size="25" fill="#FFFFFF"/><text text-anchor="middle" pointer-events="none" font-family="sans-serif" dy="1.5625" font-size="25" fill="#FFFFFF"/><text text-anchor="middle" pointer-events="none" x="0" y="0" font-size="10px" fill="#FFFFFF" font-family="sans-serif"> Hugo</text><text text-anchor="middle" pointer-events="none" x="0" y="10" font-size="10px" fill="#FFFFFF" font-family="sans-serif"> Weaving</text></g><g class="node" transform="translate(44.23644373453938,33.86557993160408)"><circle class="outline" cx="0" cy="0" r="25" fill="#F79767" stroke="#f36924" stroke-width="2px"/><text text-anchor="middle" pointer-events="none" font-family="sans-serif" dy="1.5625" font-size="25" fill="#FFFFFF"/><text text-anchor="middle" pointer-events="none" x="0" y="5" font-size="10px" fill="#FFFFFF" font-family="sans-serif"> Joel Silver</text></g><g class="node" transform="translate(5.275444683704022,98.74516180582086)"><circle class="outline" cx="0" cy="0" r="25" fill="#F79767" stroke="#f36924" stroke-width="2px"/><text text-anchor="middle" pointer-events="none" font-family="sans-serif" dy="1.5625" font-size="25" fill="#FFFFFF"/><text text-anchor="middle" pointer-events="none" font-family="sans-serif" dy="1.5625" font-size="25" fill="#FFFFFF"/><text text-anchor="middle" pointer-events="none" x="0" y="0" font-size="10px" fill="#FFFFFF" font-family="sans-serif"> Natalie</text><text text-anchor="middle" pointer-events="none" x="0" y="10" font-size="10px" fill="#FFFFFF" font-family="sans-serif"> Portman</text></g><g class="node" transform="translate(38.314777962184955,-41.47003998984242)"><circle class="outline" cx="0" cy="0" r="25" fill="#F79767" stroke="#f36924" stroke-width="2px"/><text text-anchor="middle" pointer-events="none" font-family="sans-serif" dy="1.5625" font-size="25" fill="#FFFFFF"/><text text-anchor="middle" pointer-events="none" font-family="sans-serif" dy="1.5625" font-size="25" fill="#FFFFFF"/><text text-anchor="middle" pointer-events="none" x="0" y="0" font-size="10px" fill="#FFFFFF" font-family="sans-serif"> Stephen</text><text text-anchor="middle" pointer-events="none" x="0" y="10" font-size="10px" fill="#FFFFFF" font-family="sans-serif"> Rea</text></g><g class="node" transform="translate(-142.571800986133,116.47980786094685)"><circle class="outline" cx="0" cy="0" r="25" fill="#F79767" stroke="#f36924" stroke-width="2px"/><text text-anchor="middle" pointer-events="none" font-family="sans-serif" dy="1.5625" font-size="25" fill="#FFFFFF"/><text text-anchor="middle" pointer-events="none" x="0" y="5" font-size="10px" fill="#FFFFFF" font-family="sans-serif"> John Hurt</text></g><g class="node" transform="translate(-193.21216889478524,52.29171030664553)"><circle class="outline" cx="0" cy="0" r="25" fill="#F79767" stroke="#f36924" stroke-width="2px"/><text text-anchor="middle" pointer-events="none" font-family="sans-serif" dy="1.5625" font-size="25" fill="#FFFFFF"/><text text-anchor="middle" pointer-events="none" x="0" y="5" font-size="10px" fill="#FFFFFF" font-family="sans-serif"> Ben Miles</text></g></g></svg>