<svg xmlns="http://www.w3.org/2000/svg" width="621.3721313476562" height="673.2373046875" viewBox="-211.52259826660156 -253.11489868164062 621.3721313476562 673.2373046875"><title>Neo4j Graph Visualization</title><desc>Created using Neo4j (http://www.neo4j.com/)</desc><g class="layer relationships"><g class="relationship" transform="translate(59.70769138806121 99.66826685537336) rotate(456.28383889771425)"><path class="outline" fill="#A5ABB6" stroke="none" d="M 25 0.5 L 52.38897413129 0.5 L 52.38897413129 -0.5 L 25 -0.5 Z M 111.57647413129 0.5 L 138.96544826258 0.5 L 138.96544826258 3.5 L 145.96544826258 0 L 138.96544826258 -3.5 L 138.96544826258 -0.5 L 111.57647413129 -0.5 Z"/><text text-anchor="middle" pointer-events="none" font-size="8px" fill="#000000" x="81.98272413129" y="3" transform="rotate(180 81.98272413129 0)" font-family="sans-serif">DESTINATION</text></g><g class="relationship" transform="translate(59.70769138806121 99.66826685537336) rotate(297.3884249252776)"><path class="outline" fill="#A5ABB6" stroke="none" d="M 25 0.5 L 70.69130803097056 0.5 L 70.69130803097056 -0.5 L 25 -0.5 Z M 105.13662053097056 0.5 L 150.82792856194112 0.5 L 150.82792856194112 3.5 L 157.82792856194112 0 L 150.82792856194112 -3.5 L 150.82792856194112 -0.5 L 105.13662053097056 -0.5 Z"/><text text-anchor="middle" pointer-events="none" font-size="8px" fill="#000000" x="87.91396428097056" y="3" font-family="sans-serif">ORIGIN</text></g><g class="relationship" transform="translate(82.8958746136411 357.45717126038187) rotate(244.50083910246718)"><path class="outline" fill="#A5ABB6" stroke="none" d="M 25 0.5 L 27.943119151744042 0.5 L 27.943119151744042 -0.5 L 25 -0.5 Z M 62.38843165174404 0.5 L 65.33155080348808 0.5 L 65.33155080348808 3.5 L 72.33155080348808 0 L 65.33155080348808 -3.5 L 65.33155080348808 -0.5 L 62.38843165174404 -0.5 Z"/><text text-anchor="middle" pointer-events="none" font-size="8px" fill="#000000" x="45.16577540174404" y="3" transform="rotate(180 45.16577540174404 0)" font-family="sans-serif">ORIGIN</text></g><g class="relationship" transform="translate(82.8958746136411 357.45717126038187) rotate(298.8388857541055)"><path class="outline" fill="#A5ABB6" stroke="none" d="M 25 0.5 L 60.30451652233154 0.5 L 60.30451652233154 -0.5 L 25 -0.5 Z M 119.49201652233154 0.5 L 154.79653304466308 0.5 L 154.79653304466308 3.5 L 161.79653304466308 0 L 154.79653304466308 -3.5 L 154.79653304466308 -0.5 L 119.49201652233154 -0.5 Z"/><text text-anchor="middle" pointer-events="none" font-size="8px" fill="#000000" x="89.89826652233154" y="3" font-family="sans-serif">DESTINATION</text></g><g class="relationship" transform="translate(233.7391659351048 26.941025377836073) rotate(470.00020885873744)"><path class="outline" fill="#A5ABB6" stroke="none" d="M 25 0.5 L 55.704664687111446 0.5 L 55.704664687111446 -0.5 L 25 -0.5 Z M 114.89216468711145 0.5 L 145.5968293742229 0.5 L 145.5968293742229 3.5 L 152.5968293742229 0 L 145.5968293742229 -3.5 L 145.5968293742229 -0.5 L 114.89216468711145 -0.5 Z"/><text text-anchor="middle" pointer-events="none" font-size="8px" fill="#000000" x="85.29841468711145" y="3" transform="rotate(180 85.29841468711145 0)" font-family="sans-serif">DESTINATION</text></g><g class="relationship" transform="translate(233.7391659351048 26.941025377836073) rotate(224.897974250637)"><path class="outline" fill="#A5ABB6" stroke="none" d="M 25 0.5 L 42.75233257208267 0.5 L 42.75233257208267 -0.5 L 25 -0.5 Z M 77.19764507208268 0.5 L 94.94997764416534 0.5 L 94.94997764416534 3.5 L 101.94997764416534 0 L 94.94997764416534 -3.5 L 94.94997764416534 -0.5 L 77.19764507208268 -0.5 Z"/><text text-anchor="middle" pointer-events="none" font-size="8px" fill="#000000" x="59.97498882208267" y="3" transform="rotate(180 59.97498882208267 0)" font-family="sans-serif">ORIGIN</text></g><g class="relationship" transform="translate(151.5809884839341 337.5536430040125) rotate(211.56768900169317)"><path class="outline" fill="#A5ABB6" stroke="none" d="M 25 0.5 L 44.17361527269192 0.5 L 44.17361527269192 -0.5 L 25 -0.5 Z M 78.61892777269192 0.5 L 97.79254304538384 0.5 L 97.79254304538384 3.5 L 104.79254304538384 0 L 97.79254304538384 -3.5 L 97.79254304538384 -0.5 L 78.61892777269192 -0.5 Z"/><text text-anchor="middle" pointer-events="none" font-size="8px" fill="#000000" x="61.39627152269192" y="3" transform="rotate(180 61.39627152269192 0)" font-family="sans-serif">ORIGIN</text></g><g class="relationship" transform="translate(151.5809884839341 337.5536430040125) rotate(339.92991530442646)"><path class="outline" fill="#A5ABB6" stroke="none" d="M 25 0.5 L 50.64176584885442 0.5 L 50.64176584885442 -0.5 L 25 -0.5 Z M 109.82926584885442 0.5 L 135.47103169770884 0.5 L 135.47103169770884 3.5 L 142.47103169770884 0 L 135.47103169770884 -3.5 L 135.47103169770884 -0.5 L 109.82926584885442 -0.5 Z"/><text text-anchor="middle" pointer-events="none" font-size="8px" fill="#000000" x="80.23551584885442" y="3" font-family="sans-serif">DESTINATION</text></g><g class="relationship" transform="translate(244.31573117265793 106.21038786156524) rotate(429.6278459702945)"><path class="outline" fill="#A5ABB6" stroke="none" d="M 25 0.5 L 59.64298011716326 0.5 L 59.64298011716326 -0.5 L 25 -0.5 Z M 118.83048011716326 0.5 L 153.47346023432652 0.5 L 153.47346023432652 3.5 L 160.47346023432652 0 L 153.47346023432652 -3.5 L 153.47346023432652 -0.5 L 118.83048011716326 -0.5 Z"/><text text-anchor="middle" pointer-events="none" font-size="8px" fill="#000000" x="89.23673011716326" y="3" font-family="sans-serif">DESTINATION</text></g><g class="relationship" transform="translate(244.31573117265793 106.21038786156524) rotate(239.2418660815947)"><path class="outline" fill="#A5ABB6" stroke="none" d="M 25 0.5 L 77.53750743902278 0.5 L 77.53750743902278 -0.5 L 25 -0.5 Z M 111.98281993902278 0.5 L 164.52032737804555 0.5 L 164.52032737804555 3.5 L 171.52032737804555 0 L 164.52032737804555 -3.5 L 164.52032737804555 -0.5 L 111.98281993902278 -0.5 Z"/><text text-anchor="middle" pointer-events="none" font-size="8px" fill="#000000" x="94.76016368902278" y="3" transform="rotate(180 94.76016368902278 0)" font-family="sans-serif">ORIGIN</text></g><g class="relationship" transform="translate(299.8786400241074 83.94263025135076) rotate(447.37178471020434)"><path class="outline" fill="#A5ABB6" stroke="none" d="M 25 0.5 L 65.07956328583694 0.5 L 65.07956328583694 -0.5 L 25 -0.5 Z M 124.26706328583694 0.5 L 164.34662657167388 0.5 L 164.34662657167388 3.5 L 171.34662657167388 0 L 164.34662657167388 -3.5 L 164.34662657167388 -0.5 L 124.26706328583694 -0.5 Z"/><text text-anchor="middle" pointer-events="none" font-size="8px" fill="#000000" x="94.67331328583694" y="3" font-family="sans-serif">DESTINATION</text></g><g class="relationship" transform="translate(299.8786400241074 83.94263025135076) rotate(223.21028530038978)"><path class="outline" fill="#A5ABB6" stroke="none" d="M 25 0.5 L 86.34140560834383 0.5 L 86.34140560834383 -0.5 L 25 -0.5 Z M 120.78671810834383 0.5 L 182.12812371668767 0.5 L 182.12812371668767 3.5 L 189.12812371668767 0 L 182.12812371668767 -3.5 L 182.12812371668767 -0.5 L 120.78671810834383 -0.5 Z"/><text text-anchor="middle" pointer-events="none" font-size="8px" fill="#000000" x="103.56406185834383" y="3" transform="rotate(180 103.56406185834383 0)" font-family="sans-serif">ORIGIN</text></g><g class="relationship" transform="translate(237.5881447713162 188.23226096704897) rotate(517.5142651063271)"><path class="outline" fill="#A5ABB6" stroke="none" d="M 25 0.5 L 73.29080732506193 0.5 L 73.29080732506193 -0.5 L 25 -0.5 Z M 132.47830732506193 0.5 L 180.76911465012387 0.5 L 180.76911465012387 3.5 L 187.76911465012387 0 L 180.76911465012387 -3.5 L 180.76911465012387 -0.5 L 132.47830732506193 -0.5 Z"/><text text-anchor="middle" pointer-events="none" font-size="8px" fill="#000000" x="102.88455732506193" y="3" transform="rotate(180 102.88455732506193 0)" font-family="sans-serif">DESTINATION</text></g><g class="relationship" transform="translate(237.5881447713162 188.23226096704897) rotate(310.22386565426154)"><path class="outline" fill="#A5ABB6" stroke="none" d="M 25 0.5 L 90.19924866126063 0.5 L 90.19924866126063 -0.5 L 25 -0.5 Z M 124.64456116126063 0.5 L 189.84380982252125 0.5 L 189.84380982252125 3.5 L 196.84380982252125 0 L 189.84380982252125 -3.5 L 189.84380982252125 -0.5 L 124.64456116126063 -0.5 Z"/><text text-anchor="middle" pointer-events="none" font-size="8px" fill="#000000" x="107.42190491126063" y="3" font-family="sans-serif">ORIGIN</text></g><g class="relationship" transform="translate(293.15441322736865 -61.563416153554094) rotate(402.51923222958476)"><path class="outline" fill="#A5ABB6" stroke="none" d="M 25 0.5 L 26.396805883625433 0.5 L 26.396805883625433 -0.5 L 25 -0.5 Z M 85.58430588362543 0.5 L 86.98111176725087 0.5 L 86.98111176725087 3.5 L 93.98111176725087 0 L 86.98111176725087 -3.5 L 86.98111176725087 -0.5 L 85.58430588362543 -0.5 Z"/><text text-anchor="middle" pointer-events="none" font-size="8px" fill="#000000" x="55.99055588362543" y="3" font-family="sans-serif">DESTINATION</text></g><g class="relationship" transform="translate(293.15441322736865 -61.563416153554094) rotate(180.4230707959308)"><path class="outline" fill="#A5ABB6" stroke="none" d="M 25 0.5 L 53.95045047870144 0.5 L 53.95045047870144 -0.5 L 25 -0.5 Z M 88.39576297870144 0.5 L 117.34621345740288 0.5 L 117.34621345740288 3.5 L 124.34621345740288 0 L 117.34621345740288 -3.5 L 117.34621345740288 -0.5 L 88.39576297870144 -0.5 Z"/><text text-anchor="middle" pointer-events="none" font-size="8px" fill="#000000" x="71.17310672870144" y="3" transform="rotate(180 71.17310672870144 0)" font-family="sans-serif">ORIGIN</text></g><g class="relationship" transform="translate(184.57611538801635 287.5233485664293) rotate(187.11289796606314)"><path class="outline" fill="#A5ABB6" stroke="none" d="M 25 0.5 L 51.62475647446229 0.5 L 51.62475647446229 -0.5 L 25 -0.5 Z M 86.07006897446229 0.5 L 112.69482544892458 0.5 L 112.69482544892458 3.5 L 119.69482544892458 0 L 112.69482544892458 -3.5 L 112.69482544892458 -0.5 L 86.07006897446229 -0.5 Z"/><text text-anchor="middle" pointer-events="none" font-size="8px" fill="#000000" x="68.84741272446229" y="3" transform="rotate(180 68.84741272446229 0)" font-family="sans-serif">ORIGIN</text></g><g class="relationship" transform="translate(184.57611538801635 287.5233485664293) rotate(356.57451361492724)"><path class="outline" fill="#A5ABB6" stroke="none" d="M 25 0.5 L 29.170486769012022 0.5 L 29.170486769012022 -0.5 L 25 -0.5 Z M 88.35798676901203 0.5 L 92.52847353802404 0.5 L 92.52847353802404 3.5 L 99.52847353802404 0 L 92.52847353802404 -3.5 L 92.52847353802404 -0.5 L 88.35798676901203 -0.5 Z"/><text text-anchor="middle" pointer-events="none" font-size="8px" fill="#000000" x="58.76423676901202" y="3" font-family="sans-serif">DESTINATION</text></g><g class="relationship" transform="translate(178.35148050316366 391.12242003865157) rotate(221.49836331481782)"><path class="outline" fill="#A5ABB6" stroke="none" d="M 25 0.5 L 70.97379319742525 0.5 L 70.97379319742525 -0.5 L 25 -0.5 Z M 105.41910569742525 0.5 L 151.3928988948505 0.5 L 151.3928988948505 3.5 L 158.3928988948505 0 L 151.3928988948505 -3.5 L 151.3928988948505 -0.5 L 105.41910569742525 -0.5 Z"/><text text-anchor="middle" pointer-events="none" font-size="8px" fill="#000000" x="88.19644944742525" y="3" transform="rotate(180 88.19644944742525 0)" font-family="sans-serif">ORIGIN</text></g><g class="relationship" transform="translate(178.35148050316366 391.12242003865157) rotate(319.6128747376469)"><path class="outline" fill="#A5ABB6" stroke="none" d="M 25 0.5 L 52.59180481311111 0.5 L 52.59180481311111 -0.5 L 25 -0.5 Z M 111.77930481311111 0.5 L 139.37110962622222 0.5 L 139.37110962622222 3.5 L 146.37110962622222 0 L 139.37110962622222 -3.5 L 139.37110962622222 -0.5 L 111.77930481311111 -0.5 Z"/><text text-anchor="middle" pointer-events="none" font-size="8px" fill="#000000" x="82.18555481311111" y="3" font-family="sans-serif">DESTINATION</text></g><g class="relationship" transform="translate(-22.445028952179463 75.38868614321257) rotate(431.9107418684449)"><path class="outline" fill="#A5ABB6" stroke="none" d="M 25 0.5 L 81.4355418521565 0.5 L 81.4355418521565 -0.5 L 25 -0.5 Z M 115.8808543521565 0.5 L 172.316396204313 0.5 L 172.316396204313 3.5 L 179.316396204313 0 L 172.316396204313 -3.5 L 172.316396204313 -0.5 L 115.8808543521565 -0.5 Z"/><text text-anchor="middle" pointer-events="none" font-size="8px" fill="#000000" x="98.6581981021565" y="3" font-family="sans-serif">ORIGIN</text></g><g class="relationship" transform="translate(-22.445028952179463 75.38868614321257) rotate(268.77433238068267)"><path class="outline" fill="#A5ABB6" stroke="none" d="M 25 0.5 L 93.83856657740802 0.5 L 93.83856657740802 -0.5 L 25 -0.5 Z M 153.02606657740802 0.5 L 221.86463315481603 0.5 L 221.86463315481603 3.5 L 228.86463315481603 0 L 221.86463315481603 -3.5 L 221.86463315481603 -0.5 L 153.02606657740802 -0.5 Z"/><text text-anchor="middle" pointer-events="none" font-size="8px" fill="#000000" x="123.43231657740802" y="3" transform="rotate(180 123.43231657740802 0)" font-family="sans-serif">DESTINATION</text></g><g class="relationship" transform="translate(77.64932377447948 -224.11489073326402) rotate(516.5851579422092)"><path class="outline" fill="#A5ABB6" stroke="none" d="M 25 0.5 L 26.403333311574166 0.5 L 26.403333311574166 -0.5 L 25 -0.5 Z M 81.59083331157416 0.5 L 82.99416662314833 0.5 L 82.99416662314833 3.5 L 89.99416662314833 0 L 82.99416662314833 -3.5 L 82.99416662314833 -0.5 L 81.59083331157416 -0.5 Z"/><text text-anchor="middle" pointer-events="none" font-size="8px" fill="#000000" x="53.997083311574166" y="3" transform="rotate(180 53.997083311574166 0)" font-family="sans-serif">DESTINATI…</text></g><g class="relationship" transform="translate(77.64932377447948 -224.11489073326402) rotate(427.71579759059085)"><path class="outline" fill="#A5ABB6" stroke="none" d="M 25 0.5 L 66.51727627685273 0.5 L 66.51727627685273 -0.5 L 25 -0.5 Z M 100.96258877685273 0.5 L 142.47986505370545 0.5 L 142.47986505370545 3.5 L 149.47986505370545 0 L 142.47986505370545 -3.5 L 142.47986505370545 -0.5 L 100.96258877685273 -0.5 Z"/><text text-anchor="middle" pointer-events="none" font-size="8px" fill="#000000" x="83.73993252685273" y="3" font-family="sans-serif">ORIGIN</text></g><g class="relationship" transform="translate(211.33149770516152 341.1781916138441) rotate(202.7910593633506)"><path class="outline" fill="#A5ABB6" stroke="none" d="M 25 0.5 L 71.65845180392103 0.5 L 71.65845180392103 -0.5 L 25 -0.5 Z M 106.10376430392103 0.5 L 152.76221610784205 0.5 L 152.76221610784205 3.5 L 159.76221610784205 0 L 152.76221610784205 -3.5 L 152.76221610784205 -0.5 L 106.10376430392103 -0.5 Z"/><text text-anchor="middle" pointer-events="none" font-size="8px" fill="#000000" x="88.88110805392103" y="3" transform="rotate(180 88.88110805392103 0)" font-family="sans-serif">ORIGIN</text></g><g class="relationship" transform="translate(211.33149770516152 341.1781916138441) rotate(327.94128542058877)"><path class="outline" fill="#A5ABB6" stroke="none" d="M 25 0.5 L 26.457914698445542 0.5 L 26.457914698445542 -0.5 L 25 -0.5 Z M 81.64541469844553 0.5 L 83.10332939689108 0.5 L 83.10332939689108 3.5 L 90.10332939689108 0 L 83.10332939689108 -3.5 L 83.10332939689108 -0.5 L 81.64541469844553 -0.5 Z"/><text text-anchor="middle" pointer-events="none" font-size="8px" fill="#000000" x="54.05166469844554" y="3" font-family="sans-serif">DESTINATI…</text></g><g class="relationship" transform="translate(131.06716051267844 -197.01130307367208) rotate(533.327737970264)"><path class="outline" fill="#A5ABB6" stroke="none" d="M 25 0.5 L 59.29048708624056 0.5 L 59.29048708624056 -0.5 L 25 -0.5 Z M 93.73579958624056 0.5 L 128.02628667248112 0.5 L 128.02628667248112 3.5 L 135.02628667248112 0 L 128.02628667248112 -3.5 L 128.02628667248112 -0.5 L 93.73579958624056 -0.5 Z"/><text text-anchor="middle" pointer-events="none" font-size="8px" fill="#000000" x="76.51314333624056" y="3" transform="rotate(180 76.51314333624056 0)" font-family="sans-serif">ORIGIN</text></g><g class="relationship" transform="translate(131.06716051267844 -197.01130307367208) rotate(444.5806588679858)"><path class="outline" fill="#A5ABB6" stroke="none" d="M 25 0.5 L 34.380413928007115 0.5 L 34.380413928007115 -0.5 L 25 -0.5 Z M 93.56791392800712 0.5 L 102.94832785601423 0.5 L 102.94832785601423 3.5 L 109.94832785601423 0 L 102.94832785601423 -3.5 L 102.94832785601423 -0.5 L 93.56791392800712 -0.5 Z"/><text text-anchor="middle" pointer-events="none" font-size="8px" fill="#000000" x="63.974163928007115" y="3" font-family="sans-serif">DESTINATION</text></g><g class="relationship" transform="translate(294.7932429760422 -121.39912766536908) rotate(418.46662747345613)"><path class="outline" fill="#A5ABB6" stroke="none" d="M 25 0.5 L 61.5498736643157 0.5 L 61.5498736643157 -0.5 L 25 -0.5 Z M 95.9951861643157 0.5 L 132.5450598286314 0.5 L 132.5450598286314 3.5 L 139.5450598286314 0 L 132.5450598286314 -3.5 L 132.5450598286314 -0.5 L 95.9951861643157 -0.5 Z"/><text text-anchor="middle" pointer-events="none" font-size="8px" fill="#000000" x="78.7725299143157" y="3" font-family="sans-serif">ORIGIN</text></g><g class="relationship" transform="translate(294.7932429760422 -121.39912766536908) rotate(518.7435184230661)"><path class="outline" fill="#A5ABB6" stroke="none" d="M 25 0.5 L 47.90750545055839 0.5 L 47.90750545055839 -0.5 L 25 -0.5 Z M 107.09500545055839 0.5 L 130.00251090111678 0.5 L 130.00251090111678 3.5 L 137.00251090111678 0 L 130.00251090111678 -3.5 L 130.00251090111678 -0.5 L 107.09500545055839 -0.5 Z"/><text text-anchor="middle" pointer-events="none" font-size="8px" fill="#000000" x="77.50125545055839" y="3" transform="rotate(180 77.50125545055839 0)" font-family="sans-serif">DESTINATION</text></g><g class="relationship" transform="translate(117.53426988872081 115.00634606944469) rotate(476.339079939803)"><path class="outline" fill="#A5ABB6" stroke="none" d="M 25 0.5 L 53.16096083081506 0.5 L 53.16096083081506 -0.5 L 25 -0.5 Z M 112.34846083081506 0.5 L 140.5094216616301 0.5 L 140.5094216616301 3.5 L 147.5094216616301 0 L 140.5094216616301 -3.5 L 140.5094216616301 -0.5 L 112.34846083081506 -0.5 Z"/><text text-anchor="middle" pointer-events="none" font-size="8px" fill="#000000" x="82.75471083081506" y="3" transform="rotate(180 82.75471083081506 0)" font-family="sans-serif">DESTINATION</text></g><g class="relationship" transform="translate(117.53426988872081 115.00634606944469) rotate(278.4131303028278)"><path class="outline" fill="#A5ABB6" stroke="none" d="M 25 0.5 L 69.07998599282749 0.5 L 69.07998599282749 -0.5 L 25 -0.5 Z M 103.52529849282749 0.5 L 147.60528448565498 0.5 L 147.60528448565498 3.5 L 154.60528448565498 0 L 147.60528448565498 -3.5 L 147.60528448565498 -0.5 L 103.52529849282749 -0.5 Z"/><text text-anchor="middle" pointer-events="none" font-size="8px" fill="#000000" x="86.30264224282749" y="3" font-family="sans-serif">ORIGIN</text></g><g class="relationship" transform="translate(177.75341887658743 48.469299322736205) rotate(451.8742236250662)"><path class="outline" fill="#A5ABB6" stroke="none" d="M 25 0.5 L 39.62411916074747 0.5 L 39.62411916074747 -0.5 L 25 -0.5 Z M 98.81161916074747 0.5 L 113.43573832149494 0.5 L 113.43573832149494 3.5 L 120.43573832149494 0 L 113.43573832149494 -3.5 L 113.43573832149494 -0.5 L 98.81161916074747 -0.5 Z"/><text text-anchor="middle" pointer-events="none" font-size="8px" fill="#000000" x="69.21786916074747" y="3" transform="rotate(180 69.21786916074747 0)" font-family="sans-serif">DESTINATION</text></g><g class="relationship" transform="translate(177.75341887658743 48.469299322736205) rotate(253.01715242254954)"><path class="outline" fill="#A5ABB6" stroke="none" d="M 25 0.5 L 37.37875345044274 0.5 L 37.37875345044274 -0.5 L 25 -0.5 Z M 71.82406595044273 0.5 L 84.20281940088547 0.5 L 84.20281940088547 3.5 L 91.20281940088547 0 L 84.20281940088547 -3.5 L 84.20281940088547 -0.5 L 71.82406595044273 -0.5 Z"/><text text-anchor="middle" pointer-events="none" font-size="8px" fill="#000000" x="54.60140970044274" y="3" transform="rotate(180 54.60140970044274 0)" font-family="sans-serif">ORIGIN</text></g><g class="relationship" transform="translate(80.84837641477878 -164.27217544397075) rotate(187.41293050481892)"><path class="outline" fill="#A5ABB6" stroke="none" d="M 25 0.5 L 26.984067756692028 0.5 L 26.984067756692028 -0.5 L 25 -0.5 Z M 75.65594275669203 0.5 L 77.64001051338406 0.5 L 77.64001051338406 3.5 L 84.64001051338406 0 L 77.64001051338406 -3.5 L 77.64001051338406 -0.5 L 75.65594275669203 -0.5 Z"/><text text-anchor="middle" pointer-events="none" font-size="8px" fill="#000000" x="51.32000525669203" y="3" transform="rotate(180 51.32000525669203 0)" font-family="sans-serif">DESTINA…</text></g><g class="relationship" transform="translate(80.84837641477878 -164.27217544397075) rotate(418.2140522593211)"><path class="outline" fill="#A5ABB6" stroke="none" d="M 25 0.5 L 39.04403869572597 0.5 L 39.04403869572597 -0.5 L 25 -0.5 Z M 73.48935119572597 0.5 L 87.53338989145195 0.5 L 87.53338989145195 3.5 L 94.53338989145195 0 L 87.53338989145195 -3.5 L 87.53338989145195 -0.5 L 73.48935119572597 -0.5 Z"/><text text-anchor="middle" pointer-events="none" font-size="8px" fill="#000000" x="56.26669494572597" y="3" font-family="sans-serif">ORIGIN</text></g><g class="relationship" transform="translate(-111.35385468697069 186.97978289873447) rotate(388.4733155721713)"><path class="outline" fill="#A5ABB6" stroke="none" d="M 25 0.5 L 65.93371549250948 0.5 L 65.93371549250948 -0.5 L 25 -0.5 Z M 100.37902799250948 0.5 L 141.31274348501896 0.5 L 141.31274348501896 3.5 L 148.31274348501896 0 L 141.31274348501896 -3.5 L 141.31274348501896 -0.5 L 100.37902799250948 -0.5 Z"/><text text-anchor="middle" pointer-events="none" font-size="8px" fill="#000000" x="83.15637174250948" y="3" font-family="sans-serif">ORIGIN</text></g><g class="relationship" transform="translate(-111.35385468697069 186.97978289873447) rotate(224.29534901532247)"><path class="outline" fill="#A5ABB6" stroke="none" d="M 25 0.5 L 27.436945799395694 0.5 L 27.436945799395694 -0.5 L 25 -0.5 Z M 64.99553954939569 0.5 L 67.43248534879139 0.5 L 67.43248534879139 3.5 L 74.43248534879139 0 L 67.43248534879139 -3.5 L 67.43248534879139 -0.5 L 64.99553954939569 -0.5 Z"/><text text-anchor="middle" pointer-events="none" font-size="8px" fill="#000000" x="46.216242674395694" y="3" transform="rotate(180 46.216242674395694 0)" font-family="sans-serif">DESTI…</text></g><g class="relationship" transform="translate(-62.70124481842949 -29.723831138459158) rotate(489.1334832649866)"><path class="outline" fill="#A5ABB6" stroke="none" d="M 25 0.5 L 61.832416521494125 0.5 L 61.832416521494125 -0.5 L 25 -0.5 Z M 121.01991652149412 0.5 L 157.85233304298825 0.5 L 157.85233304298825 3.5 L 164.85233304298825 0 L 157.85233304298825 -3.5 L 157.85233304298825 -0.5 L 121.01991652149412 -0.5 Z"/><text text-anchor="middle" pointer-events="none" font-size="8px" fill="#000000" x="91.42616652149412" y="3" transform="rotate(180 91.42616652149412 0)" font-family="sans-serif">DESTINATION</text></g><g class="relationship" transform="translate(-62.70124481842949 -29.723831138459158) rotate(350.9367277734782)"><path class="outline" fill="#A5ABB6" stroke="none" d="M 25 0.5 L 83.83956245819995 0.5 L 83.83956245819995 -0.5 L 25 -0.5 Z M 118.28487495819995 0.5 L 177.1244374163999 0.5 L 177.1244374163999 3.5 L 184.1244374163999 0 L 177.1244374163999 -3.5 L 177.1244374163999 -0.5 L 118.28487495819995 -0.5 Z"/><text text-anchor="middle" pointer-events="none" font-size="8px" fill="#000000" x="101.06221870819995" y="3" font-family="sans-serif">ORIGIN</text></g><g class="relationship" transform="translate(-109.2818471470539 294.7491598755703) rotate(350.5018791260575)"><path class="outline" fill="#A5ABB6" stroke="none" d="M 25 0.5 L 43.08898587842694 0.5 L 43.08898587842694 -0.5 L 25 -0.5 Z M 102.27648587842694 0.5 L 120.36547175685388 0.5 L 120.36547175685388 3.5 L 127.36547175685388 0 L 120.36547175685388 -3.5 L 120.36547175685388 -0.5 L 102.27648587842694 -0.5 Z"/><text text-anchor="middle" pointer-events="none" font-size="8px" fill="#000000" x="72.68273587842694" y="3" font-family="sans-serif">DESTINATION</text></g><g class="relationship" transform="translate(-109.2818471470539 294.7491598755703) rotate(247.54459055526831)"><path class="outline" fill="#A5ABB6" stroke="none" d="M 25 0.5 L 75.15116066195242 0.5 L 75.15116066195242 -0.5 L 25 -0.5 Z M 109.59647316195242 0.5 L 159.74763382390483 0.5 L 159.74763382390483 3.5 L 166.74763382390483 0 L 159.74763382390483 -3.5 L 159.74763382390483 -0.5 L 109.59647316195242 -0.5 Z"/><text text-anchor="middle" pointer-events="none" font-size="8px" fill="#000000" x="92.37381691195242" y="3" transform="rotate(180 92.37381691195242 0)" font-family="sans-serif">ORIGIN</text></g><g class="relationship" transform="translate(-23.30016965537886 15.386038770733473) rotate(507.316472088243)"><path class="outline" fill="#A5ABB6" stroke="none" d="M 25 0.5 L 73.86499344224296 0.5 L 73.86499344224296 -0.5 L 25 -0.5 Z M 108.31030594224296 0.5 L 157.17529938448592 0.5 L 157.17529938448592 3.5 L 164.17529938448592 0 L 157.17529938448592 -3.5 L 157.17529938448592 -0.5 L 108.31030594224296 -0.5 Z"/><text text-anchor="middle" pointer-events="none" font-size="8px" fill="#000000" x="91.08764969224296" y="3" transform="rotate(180 91.08764969224296 0)" font-family="sans-serif">ORIGIN</text></g><g class="relationship" transform="translate(-23.30016965537886 15.386038770733473) rotate(334.964412504254)"><path class="outline" fill="#A5ABB6" stroke="none" d="M 25 0.5 L 59.12706652763825 0.5 L 59.12706652763825 -0.5 L 25 -0.5 Z M 118.31456652763825 0.5 L 152.4416330552765 0.5 L 152.4416330552765 3.5 L 159.4416330552765 0 L 152.4416330552765 -3.5 L 152.4416330552765 -0.5 L 118.31456652763825 -0.5 Z"/><text text-anchor="middle" pointer-events="none" font-size="8px" fill="#000000" x="88.72081652763825" y="3" font-family="sans-serif">DESTINATION</text></g><g class="relationship" transform="translate(-55.11516014960513 206.97383338294455) rotate(393.0913693629021)"><path class="outline" fill="#A5ABB6" stroke="none" d="M 25 0.5 L 36.63584076058757 0.5 L 36.63584076058757 -0.5 L 25 -0.5 Z M 71.08115326058757 0.5 L 82.71699402117514 0.5 L 82.71699402117514 3.5 L 89.71699402117514 0 L 82.71699402117514 -3.5 L 82.71699402117514 -0.5 L 71.08115326058757 -0.5 Z"/><text text-anchor="middle" pointer-events="none" font-size="8px" fill="#000000" x="53.85849701058757" y="3" font-family="sans-serif">ORIGIN</text></g><g class="relationship" transform="translate(-55.11516014960513 206.97383338294455) rotate(248.1959407673629)"><path class="outline" fill="#A5ABB6" stroke="none" d="M 25 0.5 L 68.81093827252423 0.5 L 68.81093827252423 -0.5 L 25 -0.5 Z M 127.99843827252423 0.5 L 171.80937654504845 0.5 L 171.80937654504845 3.5 L 178.80937654504845 0 L 171.80937654504845 -3.5 L 171.80937654504845 -0.5 L 127.99843827252423 -0.5 Z"/><text text-anchor="middle" pointer-events="none" font-size="8px" fill="#000000" x="98.40468827252423" y="3" transform="rotate(180 98.40468827252423 0)" font-family="sans-serif">DESTINATION</text></g><g class="relationship" transform="translate(-18.242753092635333 -103.1927896288181) rotate(492.94868674768134)"><path class="outline" fill="#A5ABB6" stroke="none" d="M 25 0.5 L 49.51812428536256 0.5 L 49.51812428536256 -0.5 L 25 -0.5 Z M 108.70562428536256 0.5 L 133.22374857072512 0.5 L 133.22374857072512 3.5 L 140.22374857072512 0 L 133.22374857072512 -3.5 L 133.22374857072512 -0.5 L 108.70562428536256 -0.5 Z"/><text text-anchor="middle" pointer-events="none" font-size="8px" fill="#000000" x="79.11187428536256" y="3" transform="rotate(180 79.11187428536256 0)" font-family="sans-serif">DESTINATION</text></g><g class="relationship" transform="translate(-18.242753092635333 -103.1927896288181) rotate(374.0405220915132)"><path class="outline" fill="#A5ABB6" stroke="none" d="M 25 0.5 L 62.80015104284658 0.5 L 62.80015104284658 -0.5 L 25 -0.5 Z M 97.24546354284658 0.5 L 135.04561458569316 0.5 L 135.04561458569316 3.5 L 142.04561458569316 0 L 135.04561458569316 -3.5 L 135.04561458569316 -0.5 L 97.24546354284658 -0.5 Z"/><text text-anchor="middle" pointer-events="none" font-size="8px" fill="#000000" x="80.02280729284658" y="3" font-family="sans-serif">ORIGIN</text></g><g class="relationship" transform="translate(-136.31080746469758 241.43498885033432) rotate(369.0280812630617)"><path class="outline" fill="#A5ABB6" stroke="none" d="M 25 0.5 L 69.04221924272761 0.5 L 69.04221924272761 -0.5 L 25 -0.5 Z M 103.48753174272761 0.5 L 147.52975098545522 0.5 L 147.52975098545522 3.5 L 154.52975098545522 0 L 147.52975098545522 -3.5 L 147.52975098545522 -0.5 L 103.48753174272761 -0.5 Z"/><text text-anchor="middle" pointer-events="none" font-size="8px" fill="#000000" x="86.26487549272761" y="3" font-family="sans-serif">ORIGIN</text></g><g class="relationship" transform="translate(-136.31080746469758 241.43498885033432) rotate(249.54484719109342)"><path class="outline" fill="#A5ABB6" stroke="none" d="M 25 0.5 L 33.02243704904747 0.5 L 33.02243704904747 -0.5 L 25 -0.5 Z M 92.20993704904747 0.5 L 100.23237409809494 0.5 L 100.23237409809494 3.5 L 107.23237409809494 0 L 100.23237409809494 -3.5 L 100.23237409809494 -0.5 L 92.20993704904747 -0.5 Z"/><text text-anchor="middle" pointer-events="none" font-size="8px" fill="#000000" x="62.61618704904747" y="3" transform="rotate(180 62.61618704904747 0)" font-family="sans-serif">DESTINATION</text></g><g class="relationship" transform="translate(11.873060093811322 -51.404260028570455) rotate(514.1445779257297)"><path class="outline" fill="#A5ABB6" stroke="none" d="M 25 0.5 L 46.187444347038735 0.5 L 46.187444347038735 -0.5 L 25 -0.5 Z M 105.37494434703873 0.5 L 126.56238869407747 0.5 L 126.56238869407747 3.5 L 133.56238869407747 0 L 126.56238869407747 -3.5 L 126.56238869407747 -0.5 L 105.37494434703873 -0.5 Z"/><text text-anchor="middle" pointer-events="none" font-size="8px" fill="#000000" x="75.78119434703873" y="3" transform="rotate(180 75.78119434703873 0)" font-family="sans-serif">DESTINATION</text></g><g class="relationship" transform="translate(11.873060093811322 -51.404260028570455) rotate(355.1212384157061)"><path class="outline" fill="#A5ABB6" stroke="none" d="M 25 0.5 L 45.4868335421975 0.5 L 45.4868335421975 -0.5 L 25 -0.5 Z M 79.9321460421975 0.5 L 100.418979584395 0.5 L 100.418979584395 3.5 L 107.418979584395 0 L 100.418979584395 -3.5 L 100.418979584395 -0.5 L 79.9321460421975 -0.5 Z"/><text text-anchor="middle" pointer-events="none" font-size="8px" fill="#000000" x="62.7094897921975" y="3" font-family="sans-serif">ORIGIN</text></g></g><g class="layer nodes"><g class="node" transform="translate(40.99484850015203,269.60653214803)"><circle class="outline" cx="0" cy="0" r="25" fill="#ECB5C9" stroke="#da7298" stroke-width="2px"/><text text-anchor="middle" pointer-events="none" font-family="sans-serif" dy="1.5625" font-size="25" fill="#2A2C34"/><text text-anchor="middle" pointer-events="none" x="0" y="5" font-size="10px" fill="#2A2C34" font-family="sans-serif"> LAX</text></g><g class="node" transform="translate(143.8122711634499,-62.666175340531346)"><circle class="outline" cx="0" cy="0" r="25" fill="#ECB5C9" stroke="#da7298" stroke-width="2px"/><text text-anchor="middle" pointer-events="none" font-family="sans-serif" dy="1.5625" font-size="25" fill="#2A2C34"/><text text-anchor="middle" pointer-events="none" x="0" y="5" font-size="10px" fill="#2A2C34" font-family="sans-serif"> ORD</text></g><g class="node" transform="translate(59.70769138806121,99.66826685537336)"><circle class="outline" cx="0" cy="0" r="25" fill="#4C8EDA" stroke="#2870c2" stroke-width="2px"/><text text-anchor="middle" pointer-events="none" font-family="sans-serif" dy="1.5625" font-size="25" fill="#FFFFFF"/><text text-anchor="middle" pointer-events="none" x="0" y="5" font-size="10px" fill="#FFFFFF" font-family="sans-serif"> 11/30/20…</text></g><g class="node" transform="translate(82.8958746136411,357.45717126038187)"><circle class="outline" cx="0" cy="0" r="25" fill="#4C8EDA" stroke="#2870c2" stroke-width="2px"/><text text-anchor="middle" pointer-events="none" font-family="sans-serif" dy="1.5625" font-size="25" fill="#FFFFFF"/><text text-anchor="middle" pointer-events="none" x="0" y="5" font-size="10px" fill="#FFFFFF" font-family="sans-serif"> 11/29/20…</text></g><g class="node" transform="translate(172.99686455221496,193.82723399462688)"><circle class="outline" cx="0" cy="0" r="25" fill="#ECB5C9" stroke="#da7298" stroke-width="2px"/><text text-anchor="middle" pointer-events="none" font-family="sans-serif" dy="1.5625" font-size="25" fill="#2A2C34"/><text text-anchor="middle" pointer-events="none" x="0" y="5" font-size="10px" fill="#2A2C34" font-family="sans-serif"> LAS</text></g><g class="node" transform="translate(233.7391659351048,26.941025377836073)"><circle class="outline" cx="0" cy="0" r="25" fill="#4C8EDA" stroke="#2870c2" stroke-width="2px"/><text text-anchor="middle" pointer-events="none" font-family="sans-serif" dy="1.5625" font-size="25" fill="#FFFFFF"/><text text-anchor="middle" pointer-events="none" x="0" y="5" font-size="10px" fill="#FFFFFF" font-family="sans-serif"> 11/29/20…</text></g><g class="node" transform="translate(151.5809884839341,337.5536430040125)"><circle class="outline" cx="0" cy="0" r="25" fill="#4C8EDA" stroke="#2870c2" stroke-width="2px"/><text text-anchor="middle" pointer-events="none" font-family="sans-serif" dy="1.5625" font-size="25" fill="#FFFFFF"/><text text-anchor="middle" pointer-events="none" x="0" y="5" font-size="10px" fill="#FFFFFF" font-family="sans-serif"> 11/4/2015</text></g><g class="node" transform="translate(308.88209993273114,280.0827217057756)"><circle class="outline" cx="0" cy="0" r="25" fill="#ECB5C9" stroke="#da7298" stroke-width="2px"/><text text-anchor="middle" pointer-events="none" font-family="sans-serif" dy="1.5625" font-size="25" fill="#2A2C34"/><text text-anchor="middle" pointer-events="none" x="0" y="5" font-size="10px" fill="#2A2C34" font-family="sans-serif"> SMF</text></g><g class="node" transform="translate(244.31573117265793,106.21038786156524)"><circle class="outline" cx="0" cy="0" r="25" fill="#4C8EDA" stroke="#2870c2" stroke-width="2px"/><text text-anchor="middle" pointer-events="none" font-family="sans-serif" dy="1.5625" font-size="25" fill="#FFFFFF"/><text text-anchor="middle" pointer-events="none" x="0" y="5" font-size="10px" fill="#FFFFFF" font-family="sans-serif"> 11/30/20…</text></g><g class="node" transform="translate(299.8786400241074,83.94263025135076)"><circle class="outline" cx="0" cy="0" r="25" fill="#4C8EDA" stroke="#2870c2" stroke-width="2px"/><text text-anchor="middle" pointer-events="none" font-family="sans-serif" dy="1.5625" font-size="25" fill="#FFFFFF"/><text text-anchor="middle" pointer-events="none" x="0" y="5" font-size="10px" fill="#FFFFFF" font-family="sans-serif"> 11/29/20…</text></g><g class="node" transform="translate(237.5881447713162,188.23226096704897)"><circle class="outline" cx="0" cy="0" r="25" fill="#4C8EDA" stroke="#2870c2" stroke-width="2px"/><text text-anchor="middle" pointer-events="none" font-family="sans-serif" dy="1.5625" font-size="25" fill="#FFFFFF"/><text text-anchor="middle" pointer-events="none" x="0" y="5" font-size="10px" fill="#FFFFFF" font-family="sans-serif"> 11/29/20…</text></g><g class="node" transform="translate(380.84950385873896,18.848498613641873)"><circle class="outline" cx="0" cy="0" r="25" fill="#ECB5C9" stroke="#da7298" stroke-width="2px"/><text text-anchor="middle" pointer-events="none" font-family="sans-serif" dy="1.5625" font-size="25" fill="#2A2C34"/><text text-anchor="middle" pointer-events="none" x="0" y="5" font-size="10px" fill="#2A2C34" font-family="sans-serif"> SFO</text></g><g class="node" transform="translate(293.15441322736865,-61.563416153554094)"><circle class="outline" cx="0" cy="0" r="25" fill="#4C8EDA" stroke="#2870c2" stroke-width="2px"/><text text-anchor="middle" pointer-events="none" font-family="sans-serif" dy="1.5625" font-size="25" fill="#FFFFFF"/><text text-anchor="middle" pointer-events="none" x="0" y="5" font-size="10px" fill="#FFFFFF" font-family="sans-serif"> 11/30/20…</text></g><g class="node" transform="translate(184.57611538801635,287.5233485664293)"><circle class="outline" cx="0" cy="0" r="25" fill="#4C8EDA" stroke="#2870c2" stroke-width="2px"/><text text-anchor="middle" pointer-events="none" font-family="sans-serif" dy="1.5625" font-size="25" fill="#FFFFFF"/><text text-anchor="middle" pointer-events="none" x="0" y="5" font-size="10px" fill="#FFFFFF" font-family="sans-serif"> 11/3/2015</text></g><g class="node" transform="translate(178.35148050316366,391.12242003865157)"><circle class="outline" cx="0" cy="0" r="25" fill="#4C8EDA" stroke="#2870c2" stroke-width="2px"/><text text-anchor="middle" pointer-events="none" font-family="sans-serif" dy="1.5625" font-size="25" fill="#FFFFFF"/><text text-anchor="middle" pointer-events="none" x="0" y="5" font-size="10px" fill="#FFFFFF" font-family="sans-serif"> 11/1/2015</text></g><g class="node" transform="translate(-22.445028952179463,75.38868614321257)"><circle class="outline" cx="0" cy="0" r="25" fill="#4C8EDA" stroke="#2870c2" stroke-width="2px"/><text text-anchor="middle" pointer-events="none" font-family="sans-serif" dy="1.5625" font-size="25" fill="#FFFFFF"/><text text-anchor="middle" pointer-events="none" x="0" y="5" font-size="10px" fill="#FFFFFF" font-family="sans-serif"> 11/30/20…</text></g><g class="node" transform="translate(-27.875270626337233,-178.4178631067813)"><circle class="outline" cx="0" cy="0" r="25" fill="#ECB5C9" stroke="#da7298" stroke-width="2px"/><text text-anchor="middle" pointer-events="none" font-family="sans-serif" dy="1.5625" font-size="25" fill="#2A2C34"/><text text-anchor="middle" pointer-events="none" x="0" y="5" font-size="10px" fill="#2A2C34" font-family="sans-serif"> IAH</text></g><g class="node" transform="translate(77.64932377447948,-224.11489073326402)"><circle class="outline" cx="0" cy="0" r="25" fill="#4C8EDA" stroke="#2870c2" stroke-width="2px"/><text text-anchor="middle" pointer-events="none" font-family="sans-serif" dy="1.5625" font-size="25" fill="#FFFFFF"/><text text-anchor="middle" pointer-events="none" x="0" y="5" font-size="10px" fill="#FFFFFF" font-family="sans-serif"> 11/29/20…</text></g><g class="node" transform="translate(211.33149770516152,341.1781916138441)"><circle class="outline" cx="0" cy="0" r="25" fill="#4C8EDA" stroke="#2870c2" stroke-width="2px"/><text text-anchor="middle" pointer-events="none" font-family="sans-serif" dy="1.5625" font-size="25" fill="#FFFFFF"/><text text-anchor="middle" pointer-events="none" x="0" y="5" font-size="10px" fill="#FFFFFF" font-family="sans-serif"> 11/2/2015</text></g><g class="node" transform="translate(131.06716051267844,-197.01130307367208)"><circle class="outline" cx="0" cy="0" r="25" fill="#4C8EDA" stroke="#2870c2" stroke-width="2px"/><text text-anchor="middle" pointer-events="none" font-family="sans-serif" dy="1.5625" font-size="25" fill="#FFFFFF"/><text text-anchor="middle" pointer-events="none" x="0" y="5" font-size="10px" fill="#FFFFFF" font-family="sans-serif"> 11/29/20…</text></g><g class="node" transform="translate(294.7932429760422,-121.39912766536908)"><circle class="outline" cx="0" cy="0" r="25" fill="#4C8EDA" stroke="#2870c2" stroke-width="2px"/><text text-anchor="middle" pointer-events="none" font-family="sans-serif" dy="1.5625" font-size="25" fill="#FFFFFF"/><text text-anchor="middle" pointer-events="none" x="0" y="5" font-size="10px" fill="#FFFFFF" font-family="sans-serif"> 11/29/20…</text></g><g class="node" transform="translate(117.53426988872081,115.00634606944469)"><circle class="outline" cx="0" cy="0" r="25" fill="#4C8EDA" stroke="#2870c2" stroke-width="2px"/><text text-anchor="middle" pointer-events="none" font-family="sans-serif" dy="1.5625" font-size="25" fill="#FFFFFF"/><text text-anchor="middle" pointer-events="none" x="0" y="5" font-size="10px" fill="#FFFFFF" font-family="sans-serif"> 11/29/20…</text></g><g class="node" transform="translate(177.75341887658743,48.469299322736205)"><circle class="outline" cx="0" cy="0" r="25" fill="#4C8EDA" stroke="#2870c2" stroke-width="2px"/><text text-anchor="middle" pointer-events="none" font-family="sans-serif" dy="1.5625" font-size="25" fill="#FFFFFF"/><text text-anchor="middle" pointer-events="none" x="0" y="5" font-size="10px" fill="#FFFFFF" font-family="sans-serif"> 11/29/20…</text></g><g class="node" transform="translate(80.84837641477878,-164.27217544397075)"><circle class="outline" cx="0" cy="0" r="25" fill="#4C8EDA" stroke="#2870c2" stroke-width="2px"/><text text-anchor="middle" pointer-events="none" font-family="sans-serif" dy="1.5625" font-size="25" fill="#FFFFFF"/><text text-anchor="middle" pointer-events="none" x="0" y="5" font-size="10px" fill="#FFFFFF" font-family="sans-serif"> 11/30/20…</text></g><g class="node" transform="translate(-111.35385468697069,186.97978289873447)"><circle class="outline" cx="0" cy="0" r="25" fill="#4C8EDA" stroke="#2870c2" stroke-width="2px"/><text text-anchor="middle" pointer-events="none" font-family="sans-serif" dy="1.5625" font-size="25" fill="#FFFFFF"/><text text-anchor="middle" pointer-events="none" x="0" y="5" font-size="10px" fill="#FFFFFF" font-family="sans-serif"> 11/29/20…</text></g><g class="node" transform="translate(-182.52259892194814,117.54039215649092)"><circle class="outline" cx="0" cy="0" r="25" fill="#ECB5C9" stroke="#da7298" stroke-width="2px"/><text text-anchor="middle" pointer-events="none" font-family="sans-serif" dy="1.5625" font-size="25" fill="#2A2C34"/><text text-anchor="middle" pointer-events="none" x="0" y="5" font-size="10px" fill="#2A2C34" font-family="sans-serif"> EWR</text></g><g class="node" transform="translate(-62.70124481842949,-29.723831138459158)"><circle class="outline" cx="0" cy="0" r="25" fill="#4C8EDA" stroke="#2870c2" stroke-width="2px"/><text text-anchor="middle" pointer-events="none" font-family="sans-serif" dy="1.5625" font-size="25" fill="#FFFFFF"/><text text-anchor="middle" pointer-events="none" x="0" y="5" font-size="10px" fill="#FFFFFF" font-family="sans-serif"> 11/30/20…</text></g><g class="node" transform="translate(-109.2818471470539,294.7491598755703)"><circle class="outline" cx="0" cy="0" r="25" fill="#4C8EDA" stroke="#2870c2" stroke-width="2px"/><text text-anchor="middle" pointer-events="none" font-family="sans-serif" dy="1.5625" font-size="25" fill="#FFFFFF"/><text text-anchor="middle" pointer-events="none" x="0" y="5" font-size="10px" fill="#FFFFFF" font-family="sans-serif"> 11/29/20…</text></g><g class="node" transform="translate(-23.30016965537886,15.386038770733473)"><circle class="outline" cx="0" cy="0" r="25" fill="#4C8EDA" stroke="#2870c2" stroke-width="2px"/><text text-anchor="middle" pointer-events="none" font-family="sans-serif" dy="1.5625" font-size="25" fill="#FFFFFF"/><text text-anchor="middle" pointer-events="none" x="0" y="5" font-size="10px" fill="#FFFFFF" font-family="sans-serif"> 11/30/20…</text></g><g class="node" transform="translate(-55.11516014960513,206.97383338294455)"><circle class="outline" cx="0" cy="0" r="25" fill="#4C8EDA" stroke="#2870c2" stroke-width="2px"/><text text-anchor="middle" pointer-events="none" font-family="sans-serif" dy="1.5625" font-size="25" fill="#FFFFFF"/><text text-anchor="middle" pointer-events="none" x="0" y="5" font-size="10px" fill="#FFFFFF" font-family="sans-serif"> 11/29/20…</text></g><g class="node" transform="translate(-130.81681365674112,17.74507863365473)"><circle class="outline" cx="0" cy="0" r="25" fill="#ECB5C9" stroke="#da7298" stroke-width="2px"/><text text-anchor="middle" pointer-events="none" font-family="sans-serif" dy="1.5625" font-size="25" fill="#2A2C34"/><text text-anchor="middle" pointer-events="none" x="0" y="5" font-size="10px" fill="#2A2C34" font-family="sans-serif"> BOS</text></g><g class="node" transform="translate(-18.242753092635333,-103.1927896288181)"><circle class="outline" cx="0" cy="0" r="25" fill="#4C8EDA" stroke="#2870c2" stroke-width="2px"/><text text-anchor="middle" pointer-events="none" font-family="sans-serif" dy="1.5625" font-size="25" fill="#FFFFFF"/><text text-anchor="middle" pointer-events="none" x="0" y="5" font-size="10px" fill="#FFFFFF" font-family="sans-serif"> 11/30/20…</text></g><g class="node" transform="translate(-136.31080746469758,241.43498885033432)"><circle class="outline" cx="0" cy="0" r="25" fill="#4C8EDA" stroke="#2870c2" stroke-width="2px"/><text text-anchor="middle" pointer-events="none" font-family="sans-serif" dy="1.5625" font-size="25" fill="#FFFFFF"/><text text-anchor="middle" pointer-events="none" x="0" y="5" font-size="10px" fill="#FFFFFF" font-family="sans-serif"> 11/30/20…</text></g><g class="node" transform="translate(11.873060093811322,-51.404260028570455)"><circle class="outline" cx="0" cy="0" r="25" fill="#4C8EDA" stroke="#2870c2" stroke-width="2px"/><text text-anchor="middle" pointer-events="none" font-family="sans-serif" dy="1.5625" font-size="25" fill="#FFFFFF"/><text text-anchor="middle" pointer-events="none" x="0" y="5" font-size="10px" fill="#FFFFFF" font-family="sans-serif"> 11/29/20…</text></g></g></svg>