<svg xmlns="http://www.w3.org/2000/svg" width="163.63609313964844" height="243.3386993408203" viewBox="-1.4063663482666016 -20.695384979248047 163.63609313964844 243.3386993408203"><title>Neo4j Graph Visualization</title><desc>Created using Neo4j (http://www.neo4j.com/)</desc><g class="layer relationships"><g class="relationship" transform="translate(133.22971457053953 8.304615692025054) rotate(522.0176407169974)"><path class="outline" fill="#A5ABB6" stroke="none" d="M 21.40063509461097,12.933012701892217 L 21.90063509461097,12.06698729810778 A 59.940430334189315 59.940430334189315 0 0 0 23.47091251434518,12.942454486035693 L 22.997109814080588,13.823085510484624 A 60.940430334189315 60.940430334189315 0 0 1 21.40063509461097,12.933012701892217 Z M 77.38358714124934,15.499949437838765 L 76.96493671919562,14.591801969574803 A 59.940430334189315 59.940430334189315 0 0 0 78.58616563585298,13.814736482077352 L 77.24907236382273,11.129185964605849 L 85.07529905529154,11.142443933585367 L 80.36895666522665,17.39547050537269 L 79.0318633931964,14.709919987901186 A 60.940430334189315 60.940430334189315 0 0 1 77.38358714124934,15.499949437838765"/><text text-anchor="middle" pointer-events="none" font-size="8px" fill="#000000" x="50.00821375585311" y="23.56877432233096" transform="rotate(180 50.00821375585311 20.56877432233096)" font-family="sans-serif">PublicTrans…</text></g><g class="relationship" transform="translate(31.023825650257592 41.47853535665826) rotate(451.8427800566538)"><path class="outline" fill="#A5ABB6" stroke="none" d="M 25 0.5 L 40.16702159070511 0.5 L 40.16702159070511 -0.5 L 25 -0.5 Z M 59.50295909070511 0.5 L 74.66998068141022 0.5 L 74.66998068141022 3.5 L 81.66998068141022 0 L 74.66998068141022 -3.5 L 74.66998068141022 -0.5 L 59.50295909070511 -0.5 Z"/><text text-anchor="middle" pointer-events="none" font-size="8px" fill="#000000" x="49.83499034070511" y="3" transform="rotate(180 49.83499034070511 0)" font-family="sans-serif">trek</text></g><g class="relationship" transform="translate(27.593635383463244 148.09334939910744) rotate(385.109976536679)"><path class="outline" fill="#A5ABB6" stroke="none" d="M 25 0.5 L 40.50141381397397 0.5 L 40.50141381397397 -0.5 L 25 -0.5 Z M 59.83735131397397 0.5 L 75.33876512794794 0.5 L 75.33876512794794 3.5 L 82.33876512794794 0 L 75.33876512794794 -3.5 L 75.33876512794794 -0.5 L 59.83735131397397 -0.5 Z"/><text text-anchor="middle" pointer-events="none" font-size="8px" fill="#000000" x="50.16938256397397" y="3" font-family="sans-serif">trek</text></g><g class="relationship" transform="translate(133.22971457053953 8.304615692025054) rotate(522.0176407169974)"><path class="outline" fill="#A5ABB6" stroke="none" d="M 25 0.5 L 40.5594746004437 0.5 L 40.5594746004437 -0.5 L 25 -0.5 Z M 59.8954121004437 0.5 L 75.4548867008874 0.5 L 75.4548867008874 3.5 L 82.4548867008874 0 L 75.4548867008874 -3.5 L 75.4548867008874 -0.5 L 59.8954121004437 -0.5 Z"/><text text-anchor="middle" pointer-events="none" font-size="8px" fill="#000000" x="50.2274433504437" y="3" transform="rotate(180 50.2274433504437 0)" font-family="sans-serif">trek</text></g><g class="relationship" transform="translate(133.22971457053953 8.304615692025054) rotate(522.0176407169974)"><path class="outline" fill="#A5ABB6" stroke="none" d="M 21.40063509461097,-12.933012701892217 L 21.90063509461097,-12.06698729810778 A 59.940430334189315 59.940430334189315 0 0 1 39.204726670059465,-18.74394892961039 L 38.99341481392116,-19.72136762160241 A 60.940430334189315 60.940430334189315 0 0 0 21.40063509461097,-12.933012701892217 Z M 61.05429596463147,-20.401556845565857 L 60.90360051248968,-19.412976610732194 A 59.940430334189315 59.940430334189315 0 0 1 78.58616563585298,-13.814736482077352 L 77.24907236382273,-11.129185964605849 L 85.07529905529154,-11.142443933585367 L 80.36895666522665,-17.39547050537269 L 79.0318633931964,-14.709919987901186 A 60.940430334189315 60.940430334189315 0 0 0 61.05429596463147,-20.401556845565857"/><text text-anchor="middle" pointer-events="none" font-size="8px" fill="#000000" x="50.00821375585313" y="-17.56877432233096" transform="rotate(180 50.00821375585313 -20.56877432233096)" font-family="sans-serif">road</text></g></g><g class="layer nodes"><g class="node" transform="translate(133.22971457053953,8.304615692025054)"><circle class="outline" cx="0" cy="0" r="25" fill="#F16667" stroke="#eb2728" stroke-width="2px"/><text text-anchor="middle" pointer-events="none" font-family="sans-serif" dy="1.5625" font-size="25" fill="#FFFFFF"/><text text-anchor="middle" pointer-events="none" x="0" y="5" font-size="10px" fill="#FFFFFF" font-family="sans-serif"> Darjeeling</text></g><g class="node" transform="translate(124.78834216550352,193.6433161690842)"><circle class="outline" cx="0" cy="0" r="25" fill="#8DCC93" stroke="#5db665" stroke-width="2px"/><text text-anchor="middle" pointer-events="none" font-family="sans-serif" dy="1.5625" font-size="25" fill="#2A2C34"/><text text-anchor="middle" pointer-events="none" x="0" y="5" font-size="10px" fill="#2A2C34" font-family="sans-serif"> Sandak…</text></g><g class="node" transform="translate(31.023825650257592,41.47853535665826)"><circle class="outline" cx="0" cy="0" r="25" fill="#F16667" stroke="#eb2728" stroke-width="2px"/><text text-anchor="middle" pointer-events="none" font-family="sans-serif" dy="1.5625" font-size="25" fill="#FFFFFF"/><text text-anchor="middle" pointer-events="none" x="0" y="5" font-size="10px" fill="#FFFFFF" font-family="sans-serif"> Rimbik</text></g><g class="node" transform="translate(27.593635383463244,148.09334939910744)"><circle class="outline" cx="0" cy="0" r="25" fill="#D9C8AE" stroke="#c0a378" stroke-width="2px"/><text text-anchor="middle" pointer-events="none" font-family="sans-serif" dy="1.5625" font-size="25" fill="#2A2C34"/><text text-anchor="middle" pointer-events="none" x="0" y="5" font-size="10px" fill="#2A2C34" font-family="sans-serif"> BhikeBh…</text></g></g></svg>