<svg xmlns="http://www.w3.org/2000/svg" width="376.64739990234375" height="381.26422119140625" viewBox="-130.998779296875 -147.310546875 376.64739990234375 381.26422119140625"><title>Neo4j Graph Visualization</title><desc>Created using Neo4j (http://www.neo4j.com/)</desc><g class="layer relationships"><g class="relationship" transform="translate(145.92015779939842 199.64286042256134) rotate(246.49247817077537)"><path class="outline" fill="#A5ABB6" stroke="none" d="M 25 0.5 L 36.100292690142666 0.5 L 36.100292690142666 -0.5 L 25 -0.5 Z M 82.99091769014267 0.5 L 94.09121038028533 0.5 L 94.09121038028533 3.5 L 101.09121038028533 0 L 94.09121038028533 -3.5 L 94.09121038028533 -0.5 L 82.99091769014267 -0.5 Z"/><text text-anchor="middle" pointer-events="none" font-size="8px" fill="#000000" x="59.545605190142666" y="3" transform="rotate(180 59.545605190142666 0)" font-family="sans-serif">DIRECTED</text></g><g class="relationship" transform="translate(207.42488076145088 141.31069502649984) rotate(207.13418039670012)"><path class="outline" fill="#A5ABB6" stroke="none" d="M 25 0.5 L 41.42568677960647 0.5 L 41.42568677960647 -0.5 L 25 -0.5 Z M 77.19912427960648 0.5 L 93.62481105921294 0.5 L 93.62481105921294 3.5 L 100.62481105921294 0 L 93.62481105921294 -3.5 L 93.62481105921294 -0.5 L 77.19912427960648 -0.5 Z"/><text text-anchor="middle" pointer-events="none" font-size="8px" fill="#000000" x="59.31240552960647" y="3" transform="rotate(180 59.31240552960647 0)" font-family="sans-serif">WROTE</text></g><g class="relationship" transform="translate(216.64866462943706 55.46035944038308) rotate(526.7235889137768)"><path class="outline" fill="#A5ABB6" stroke="none" d="M 25 0.5 L 35.89163316292892 0.5 L 35.89163316292892 -0.5 L 25 -0.5 Z M 81.45413316292891 0.5 L 92.34576632585784 0.5 L 92.34576632585784 3.5 L 99.34576632585784 0 L 92.34576632585784 -3.5 L 92.34576632585784 -0.5 L 81.45413316292891 -0.5 Z"/><text text-anchor="middle" pointer-events="none" font-size="8px" fill="#000000" x="58.67288316292892" y="3" transform="rotate(180 58.67288316292892 0)" font-family="sans-serif">ACTED_IN</text></g><g class="relationship" transform="translate(4.174062559723947 -10.103893794462238) rotate(405.8236863829215)"><path class="outline" fill="#A5ABB6" stroke="none" d="M 25 0.5 L 39.33524751809169 0.5 L 39.33524751809169 -0.5 L 25 -0.5 Z M 84.89774751809169 0.5 L 99.23299503618338 0.5 L 99.23299503618338 3.5 L 106.23299503618338 0 L 99.23299503618338 -3.5 L 99.23299503618338 -0.5 L 84.89774751809169 -0.5 Z"/><text text-anchor="middle" pointer-events="none" font-size="8px" fill="#000000" x="62.11649751809169" y="3" font-family="sans-serif">ACTED_IN</text></g><g class="relationship" transform="translate(61.59308535111477 204.95368401515464) rotate(285.71719236123596)"><path class="outline" fill="#A5ABB6" stroke="none" d="M 25 0.5 L 41.430711563782296 0.5 L 41.430711563782296 -0.5 L 25 -0.5 Z M 77.2041490637823 0.5 L 93.63486062756459 0.5 L 93.63486062756459 3.5 L 100.63486062756459 0 L 93.63486062756459 -3.5 L 93.63486062756459 -0.5 L 77.2041490637823 -0.5 Z"/><text text-anchor="middle" pointer-events="none" font-size="8px" fill="#000000" x="59.317430313782296" y="3" font-family="sans-serif">WROTE</text></g><g class="relationship" transform="translate(4.174062559723947 -10.103893794462238) rotate(514.2956822137972)"><path class="outline" fill="#A5ABB6" stroke="none" d="M 25 0.5 L 32.635299231834345 0.5 L 32.635299231834345 -0.5 L 25 -0.5 Z M 78.19779923183435 0.5 L 85.83309846366869 0.5 L 85.83309846366869 3.5 L 92.83309846366869 0 L 85.83309846366869 -3.5 L 85.83309846366869 -0.5 L 78.19779923183435 -0.5 Z"/><text text-anchor="middle" pointer-events="none" font-size="8px" fill="#000000" x="55.416549231834345" y="3" transform="rotate(180 55.416549231834345 0)" font-family="sans-serif">ACTED_IN</text></g><g class="relationship" transform="translate(4.174062559723947 -10.103893794462238) rotate(469.51214210836383)"><path class="outline" fill="#A5ABB6" stroke="none" d="M 25 0.5 L 33.42239474105966 0.5 L 33.42239474105966 -0.5 L 25 -0.5 Z M 78.98489474105966 0.5 L 87.40728948211932 0.5 L 87.40728948211932 3.5 L 94.40728948211932 0 L 87.40728948211932 -3.5 L 87.40728948211932 -0.5 L 78.98489474105966 -0.5 Z"/><text text-anchor="middle" pointer-events="none" font-size="8px" fill="#000000" x="56.20364474105966" y="3" transform="rotate(180 56.20364474105966 0)" font-family="sans-serif">ACTED_IN</text></g><g class="relationship" transform="translate(4.174062559723947 -10.103893794462238) rotate(339.1178263710484)"><path class="outline" fill="#A5ABB6" stroke="none" d="M 25 0.5 L 32.993228851655104 0.5 L 32.993228851655104 -0.5 L 25 -0.5 Z M 78.5557288516551 0.5 L 86.54895770331021 0.5 L 86.54895770331021 3.5 L 93.54895770331021 0 L 86.54895770331021 -3.5 L 86.54895770331021 -0.5 L 78.5557288516551 -0.5 Z"/><text text-anchor="middle" pointer-events="none" font-size="8px" fill="#000000" x="55.774478851655104" y="3" font-family="sans-serif">ACTED_IN</text></g><g class="relationship" transform="translate(4.174062559723947 -10.103893794462238) rotate(289.87574314238975)"><path class="outline" fill="#A5ABB6" stroke="none" d="M 25 0.5 L 31.24903004757075 0.5 L 31.24903004757075 -0.5 L 25 -0.5 Z M 76.81153004757076 0.5 L 83.0605600951415 0.5 L 83.0605600951415 3.5 L 90.0605600951415 0 L 83.0605600951415 -3.5 L 83.0605600951415 -0.5 L 76.81153004757076 -0.5 Z"/><text text-anchor="middle" pointer-events="none" font-size="8px" fill="#000000" x="54.03028004757075" y="3" font-family="sans-serif">ACTED_IN</text></g><g class="relationship" transform="translate(4.174062559723947 -10.103893794462238) rotate(217.46042807658182)"><path class="outline" fill="#A5ABB6" stroke="none" d="M 25 0.5 L 28.608498569357117 0.5 L 28.608498569357117 -0.5 L 25 -0.5 Z M 74.17099856935712 0.5 L 77.77949713871423 0.5 L 77.77949713871423 3.5 L 84.77949713871423 0 L 77.77949713871423 -3.5 L 77.77949713871423 -0.5 L 74.17099856935712 -0.5 Z"/><text text-anchor="middle" pointer-events="none" font-size="8px" fill="#000000" x="51.38974856935712" y="3" transform="rotate(180 51.38974856935712 0)" font-family="sans-serif">ACTED_IN</text></g></g><g class="layer nodes"><g class="node" transform="translate(145.92015779939842,199.64286042256134)"><circle class="outline" cx="0" cy="0" r="25" fill="#F79767" stroke="#f36924" stroke-width="2px"/><text text-anchor="middle" pointer-events="none" font-family="sans-serif" dy="1.5625" font-size="25" fill="#FFFFFF"/><text text-anchor="middle" pointer-events="none" font-family="sans-serif" dy="1.5625" font-size="25" fill="#FFFFFF"/><text text-anchor="middle" pointer-events="none" x="0" y="0" font-size="10px" fill="#FFFFFF" font-family="sans-serif"> Joe</text><text text-anchor="middle" pointer-events="none" x="0" y="10" font-size="10px" fill="#FFFFFF" font-family="sans-serif"> Johnston</text></g><g class="node" transform="translate(207.42488076145088,141.31069502649984)"><circle class="outline" cx="0" cy="0" r="25" fill="#F79767" stroke="#f36924" stroke-width="2px"/><text text-anchor="middle" pointer-events="none" font-family="sans-serif" dy="1.5625" font-size="25" fill="#FFFFFF"/><text text-anchor="middle" pointer-events="none" font-family="sans-serif" dy="1.5625" font-size="25" fill="#FFFFFF"/><text text-anchor="middle" pointer-events="none" x="0" y="0" font-size="10px" fill="#FFFFFF" font-family="sans-serif"> Stephen</text><text text-anchor="middle" pointer-events="none" x="0" y="10" font-size="10px" fill="#FFFFFF" font-family="sans-serif"> McFeely</text></g><g class="node" transform="translate(216.64866462943706,55.46035944038308)"><circle class="outline" cx="0" cy="0" r="25" fill="#F79767" stroke="#f36924" stroke-width="2px"/><text text-anchor="middle" pointer-events="none" font-family="sans-serif" dy="1.5625" font-size="25" fill="#FFFFFF"/><text text-anchor="middle" pointer-events="none" font-family="sans-serif" dy="1.5625" font-size="25" fill="#FFFFFF"/><text text-anchor="middle" pointer-events="none" x="0" y="0" font-size="10px" fill="#FFFFFF" font-family="sans-serif"> Chris</text><text text-anchor="middle" pointer-events="none" x="0" y="10" font-size="10px" fill="#FFFFFF" font-family="sans-serif"> Evans</text></g><g class="node" transform="translate(95.62622508618375,84.01624727747259)"><circle class="outline" cx="0" cy="0" r="25" fill="#57C7E3" stroke="#23b3d7" stroke-width="2px"/><text text-anchor="middle" pointer-events="none" font-family="sans-serif" dy="1.5625" font-size="25" fill="#2A2C34"/><text text-anchor="middle" pointer-events="none" font-family="sans-serif" dy="1.5625" font-size="25" fill="#2A2C34"/><text text-anchor="middle" pointer-events="none" font-family="sans-serif" dy="1.5625" font-size="25" fill="#2A2C34"/><text text-anchor="middle" pointer-events="none" x="0" y="-5" font-size="10px" fill="#2A2C34" font-family="sans-serif"> Captain</text><text text-anchor="middle" pointer-events="none" x="0" y="5" font-size="10px" fill="#2A2C34" font-family="sans-serif"> America:</text><text text-anchor="middle" pointer-events="none" x="0" y="15" font-size="10px" fill="#2A2C34" font-family="sans-serif"> The Fi…</text></g><g class="node" transform="translate(4.174062559723947,-10.103893794462238)"><circle class="outline" cx="0" cy="0" r="25" fill="#F79767" stroke="#f36924" stroke-width="2px"/><text text-anchor="middle" pointer-events="none" font-family="sans-serif" dy="1.5625" font-size="25" fill="#FFFFFF"/><text text-anchor="middle" pointer-events="none" font-family="sans-serif" dy="1.5625" font-size="25" fill="#FFFFFF"/><text text-anchor="middle" pointer-events="none" x="0" y="0" font-size="10px" fill="#FFFFFF" font-family="sans-serif"> Hugo</text><text text-anchor="middle" pointer-events="none" x="0" y="10" font-size="10px" fill="#FFFFFF" font-family="sans-serif"> Weaving</text></g><g class="node" transform="translate(61.59308535111477,204.95368401515464)"><circle class="outline" cx="0" cy="0" r="25" fill="#F79767" stroke="#f36924" stroke-width="2px"/><text text-anchor="middle" pointer-events="none" font-family="sans-serif" dy="1.5625" font-size="25" fill="#FFFFFF"/><text text-anchor="middle" pointer-events="none" x="0" y="5" font-size="10px" fill="#FFFFFF" font-family="sans-serif"> Christop…</text></g><g class="node" transform="translate(-101.99878368645373,41.00350110621876)"><circle class="outline" cx="0" cy="0" r="25" fill="#57C7E3" stroke="#23b3d7" stroke-width="2px"/><text text-anchor="middle" pointer-events="none" font-family="sans-serif" dy="1.5625" font-size="25" fill="#2A2C34"/><text text-anchor="middle" pointer-events="none" font-family="sans-serif" dy="1.5625" font-size="25" fill="#2A2C34"/><text text-anchor="middle" pointer-events="none" x="0" y="0" font-size="10px" fill="#2A2C34" font-family="sans-serif"> The</text><text text-anchor="middle" pointer-events="none" x="0" y="10" font-size="10px" fill="#2A2C34" font-family="sans-serif"> Matrix</text></g><g class="node" transform="translate(-35.70876213832137,102.44592217860647)"><circle class="outline" cx="0" cy="0" r="25" fill="#57C7E3" stroke="#23b3d7" stroke-width="2px"/><text text-anchor="middle" pointer-events="none" font-family="sans-serif" dy="1.5625" font-size="25" fill="#2A2C34"/><text text-anchor="middle" pointer-events="none" font-family="sans-serif" dy="1.5625" font-size="25" fill="#2A2C34"/><text text-anchor="middle" pointer-events="none" font-family="sans-serif" dy="1.5625" font-size="25" fill="#2A2C34"/><text text-anchor="middle" pointer-events="none" x="0" y="-5" font-size="10px" fill="#2A2C34" font-family="sans-serif"> The</text><text text-anchor="middle" pointer-events="none" x="0" y="5" font-size="10px" fill="#2A2C34" font-family="sans-serif"> Matrix</text><text text-anchor="middle" pointer-events="none" x="0" y="15" font-size="10px" fill="#2A2C34" font-family="sans-serif"> Reloa…</text></g><g class="node" transform="translate(114.9361818371855,-52.36035253992048)"><circle class="outline" cx="0" cy="0" r="25" fill="#57C7E3" stroke="#23b3d7" stroke-width="2px"/><text text-anchor="middle" pointer-events="none" font-family="sans-serif" dy="1.5625" font-size="25" fill="#2A2C34"/><text text-anchor="middle" pointer-events="none" font-family="sans-serif" dy="1.5625" font-size="25" fill="#2A2C34"/><text text-anchor="middle" pointer-events="none" font-family="sans-serif" dy="1.5625" font-size="25" fill="#2A2C34"/><text text-anchor="middle" pointer-events="none" x="0" y="-5" font-size="10px" fill="#2A2C34" font-family="sans-serif"> The</text><text text-anchor="middle" pointer-events="none" x="0" y="5" font-size="10px" fill="#2A2C34" font-family="sans-serif"> Matrix</text><text text-anchor="middle" pointer-events="none" x="0" y="15" font-size="10px" fill="#2A2C34" font-family="sans-serif"> Revol…</text></g><g class="node" transform="translate(43.29251717228756,-118.31054330424269)"><circle class="outline" cx="0" cy="0" r="25" fill="#57C7E3" stroke="#23b3d7" stroke-width="2px"/><text text-anchor="middle" pointer-events="none" font-family="sans-serif" dy="1.5625" font-size="25" fill="#2A2C34"/><text text-anchor="middle" pointer-events="none" font-family="sans-serif" dy="1.5625" font-size="25" fill="#2A2C34"/><text text-anchor="middle" pointer-events="none" x="0" y="0" font-size="10px" fill="#2A2C34" font-family="sans-serif"> Cloud</text><text text-anchor="middle" pointer-events="none" x="0" y="10" font-size="10px" fill="#2A2C34" font-family="sans-serif"> Atlas</text></g><g class="node" transform="translate(-82.96600391714715,-76.87324908890442)"><circle class="outline" cx="0" cy="0" r="25" fill="#57C7E3" stroke="#23b3d7" stroke-width="2px"/><text text-anchor="middle" pointer-events="none" font-family="sans-serif" dy="1.5625" font-size="25" fill="#2A2C34"/><text text-anchor="middle" pointer-events="none" font-family="sans-serif" dy="1.5625" font-size="25" fill="#2A2C34"/><text text-anchor="middle" pointer-events="none" x="0" y="0" font-size="10px" fill="#2A2C34" font-family="sans-serif"> V for</text><text text-anchor="middle" pointer-events="none" x="0" y="10" font-size="10px" fill="#2A2C34" font-family="sans-serif"> Vendetta</text></g></g></svg>