<svg xmlns="http://www.w3.org/2000/svg" width="476.69598388671875" height="501.11993408203125" viewBox="-200.5056915283203 -220.96124267578125 476.69598388671875 501.11993408203125"><title>Neo4j Graph Visualization</title><desc>Created using Neo4j (http://www.neo4j.com/)</desc><g class="layer relationships"><g class="relationship" transform="translate(-136.09042059985973 9.298824056850833) rotate(453.2162908268279)"><path class="outline" fill="#A5ABB6" stroke="none" d="M 21.40063509461097,12.933012701892217 L 21.90063509461097,12.06698729810778 A 94.04884431519073 94.04884431519073 0 0 0 49.04144193558406,22.54123925486138 L 48.83002397014915,23.518635000652907 A 95.04884431519073 95.04884431519073 0 0 1 21.40063509461097,12.933012701892217 Z M 84.56835073862307,24.371006483093296 L 84.40376911115433,23.384643016667383 A 94.04884431519073 94.04884431519073 0 0 0 112.01306103906067,14.216199895165508 L 110.63862616639649,11.549567415650458 L 118.46427597003982,11.453623938868246 L 113.84564086927959,17.77170986785224 L 112.47120599661541,15.105077388337191 A 95.04884431519073 95.04884431519073 0 0 1 84.56835073862307,24.371006483093296"/><text text-anchor="middle" pointer-events="none" font-size="8px" fill="#000000" x="66.67067563805628" y="28.140263170340802" transform="rotate(180 66.67067563805628 25.140263170340802)" font-family="sans-serif">WROTE</text></g><g class="relationship" transform="translate(-136.09042059985973 9.298824056850833) rotate(453.2162908268279)"><path class="outline" fill="#A5ABB6" stroke="none" d="M 25 0.5 L 43.39779414966597 0.5 L 43.39779414966597 -0.5 L 25 -0.5 Z M 90.28841914966597 0.5 L 108.68621329933194 0.5 L 108.68621329933194 3.5 L 115.68621329933194 0 L 108.68621329933194 -3.5 L 108.68621329933194 -0.5 L 90.28841914966597 -0.5 Z"/><text text-anchor="middle" pointer-events="none" font-size="8px" fill="#000000" x="66.84310664966597" y="3" transform="rotate(180 66.84310664966597 0)" font-family="sans-serif">DIRECTED</text></g><g class="relationship" transform="translate(-136.09042059985973 9.298824056850833) rotate(453.2162908268279)"><path class="outline" fill="#A5ABB6" stroke="none" d="M 21.40063509461097,-12.933012701892217 L 21.90063509461097,-12.06698729810778 A 94.04884431519073 94.04884431519073 0 0 1 41.34032178376026,-20.53085358831825 L 41.047019556930124,-21.486873359942507 A 95.04884431519073 95.04884431519073 0 0 0 21.40063509461097,-12.933012701892217 Z M 92.4393669727502,-22.712598661429112 L 92.19197511975125,-21.74368314856447 A 94.04884431519073 94.04884431519073 0 0 1 112.01306103906067,-14.216199895165508 L 110.63862616639649,-11.549567415650458 L 118.46427597003982,-11.453623938868246 L 113.84564086927959,-17.77170986785224 L 112.47120599661541,-15.105077388337191 A 95.04884431519073 95.04884431519073 0 0 0 92.4393669727502,-22.712598661429112"/><text text-anchor="middle" pointer-events="none" font-size="8px" fill="#000000" x="66.67067563805631" y="-22.140263170340816" transform="rotate(180 66.67067563805631 -25.140263170340816)" font-family="sans-serif">PRODUCED</text></g><g class="relationship" transform="translate(-171.5056875388431 -182.98782108267932) rotate(442.46615624768083)"><path class="outline" fill="#A5ABB6" stroke="none" d="M 25 0.5 L 27.05021454232216 0.5 L 27.05021454232216 -0.5 L 25 -0.5 Z M 60.16349579232216 0.5 L 62.21371033464432 0.5 L 62.21371033464432 3.5 L 69.21371033464432 0 L 62.21371033464432 -3.5 L 62.21371033464432 -0.5 L 60.16349579232216 -0.5 Z"/><text text-anchor="middle" pointer-events="none" font-size="8px" fill="#000000" x="43.60685516732216" y="3" font-family="sans-serif">DIRE…</text></g><g class="relationship" transform="translate(-171.5056875388431 -182.98782108267932) rotate(401.2637738433037)"><path class="outline" fill="#A5ABB6" stroke="none" d="M 25 0.5 L 68.02162912741807 0.5 L 68.02162912741807 -0.5 L 25 -0.5 Z M 114.91225412741807 0.5 L 157.93388325483613 0.5 L 157.93388325483613 3.5 L 164.93388325483613 0 L 157.93388325483613 -3.5 L 157.93388325483613 -0.5 L 114.91225412741807 -0.5 Z"/><text text-anchor="middle" pointer-events="none" font-size="8px" fill="#000000" x="91.46694162741807" y="3" font-family="sans-serif">DIRECTED</text></g><g class="relationship" transform="translate(-171.5056875388431 -182.98782108267932) rotate(421.6532971298191)"><path class="outline" fill="#A5ABB6" stroke="none" d="M 25 0.5 L 146.3215128568452 0.5 L 146.3215128568452 -0.5 L 25 -0.5 Z M 193.2121378568452 0.5 L 314.5336507136904 0.5 L 314.5336507136904 3.5 L 321.5336507136904 0 L 314.5336507136904 -3.5 L 314.5336507136904 -0.5 L 193.2121378568452 -0.5 Z"/><text text-anchor="middle" pointer-events="none" font-size="8px" fill="#000000" x="169.7668253568452" y="3" font-family="sans-serif">DIRECTED</text></g><g class="relationship" transform="translate(-171.5056875388431 -182.98782108267932) rotate(413.4992933944458)"><path class="outline" fill="#A5ABB6" stroke="none" d="M 25 0.5 L 110.78787330184505 0.5 L 110.78787330184505 -0.5 L 25 -0.5 Z M 157.67849830184505 0.5 L 243.4663716036901 0.5 L 243.4663716036901 3.5 L 250.4663716036901 0 L 243.4663716036901 -3.5 L 243.4663716036901 -0.5 L 157.67849830184505 -0.5 Z"/><text text-anchor="middle" pointer-events="none" font-size="8px" fill="#000000" x="134.23318580184505" y="3" font-family="sans-serif">DIRECTED</text></g><g class="relationship" transform="translate(-171.5056875388431 -182.98782108267932) rotate(380.97746941309924)"><path class="outline" fill="#A5ABB6" stroke="none" d="M 24.018736134675446,6.953439040707552 L 24.277555179777966,5.987513214418485 A 290.43606350882754 290.43606350882754 0 0 0 71.11290233754917,14.498389659982479 L 71.01534201008641,15.493619272938872 A 291.43606350882754 291.43606350882754 0 0 1 24.018736134675446,6.953439040707552 Z M 122.81517501940505,15.945583519672937 L 122.73499539119568,14.948803088875763 A 290.43606350882754 290.43606350882754 0 0 0 169.71171901946158,7.2564563459026 L 168.98594366253667,4.345571578124848 L 176.62474603709714,6.0481279743741325 L 170.67941949536146,11.137636036272937 L 169.95364413843654,8.226751268495184 A 291.43606350882754 291.43606350882754 0 0 1 122.81517501940505,15.945583519672937"/><text text-anchor="middle" pointer-events="none" font-size="8px" fill="#000000" x="96.90955914903529" y="19.372808357239535" font-family="sans-serif">PRODUCED</text></g><g class="relationship" transform="translate(-171.5056875388431 -182.98782108267932) rotate(380.97746941309924)"><path class="outline" fill="#A5ABB6" stroke="none" d="M 24.018736134675446,-6.953439040707552 L 24.277555179777966,-5.987513214418485 A 290.43606350882754 290.43606350882754 0 0 1 79.07465598131981,-15.168436237978995 L 79.00450875658122,-16.16597288736159 A 291.43606350882754 291.43606350882754 0 0 0 24.018736134675446,-6.953439040707552 Z M 114.81549264325903,-16.478431121623373 L 114.76276219988917,-15.479822339195493 A 290.43606350882754 290.43606350882754 0 0 1 169.71171901946158,-7.2564563459026 L 168.98594366253667,-4.345571578124848 L 176.62474603709714,-6.0481279743741325 L 170.67941949536146,-11.137636036272937 L 169.95364413843654,-8.226751268495184 A 291.43606350882754 291.43606350882754 0 0 0 114.81549264325903,-16.478431121623373"/><text text-anchor="middle" pointer-events="none" font-size="8px" fill="#000000" x="96.9095591490353" y="-13.372808357239535" font-family="sans-serif">WROTE</text></g><g class="relationship" transform="translate(-171.5056875388431 -182.98782108267932) rotate(360.0622119811028)"><path class="outline" fill="#A5ABB6" stroke="none" d="M 24.018736134675446,6.953439040707552 L 24.277555179777966,5.987513214418485 A 689.9629921882038 689.9629921882038 0 0 0 176.4078632328186,28.990442164166097 L 176.36953472094103,29.98970735678381 A 690.9629921882038 690.9629921882038 0 0 1 24.018736134675446,6.953439040707552 Z M 223.2846483612256,30.19528945408274 L 223.2550787162255,29.19572673164123 A 689.9629921882038 689.9629921882038 0 0 0 375.5811383545884,7.526926035016486 L 374.8301066804136,4.6224550979289365 L 382.4834091534885,6.25859728478993 L 376.5825139201548,11.39955395113322 L 375.83148224598,8.495083014045669 A 690.9629921882038 690.9629921882038 0 0 1 223.2846483612256,30.19528945408274"/><text text-anchor="middle" pointer-events="none" font-size="8px" fill="#000000" x="199.82753717029686" y="32.990803046399606" font-family="sans-serif">DIRECTED</text></g><g class="relationship" transform="translate(-171.5056875388431 -182.98782108267932) rotate(360.0622119811028)"><path class="outline" fill="#A5ABB6" stroke="none" d="M 24.018736134675446,-6.953439040707552 L 24.277555179777966,-5.987513214418485 A 689.9629921882038 689.9629921882038 0 0 1 181.95914719181945,-29.180996145556946 L 181.92886445054384,-30.180537518177857 A 690.9629921882038 690.9629921882038 0 0 0 24.018736134675446,-6.953439040707552 Z M 217.72385972333606,-30.337391240357988 L 217.702337960351,-29.33762286032288 A 689.9629921882038 689.9629921882038 0 0 1 375.5811383545884,-7.526926035016486 L 374.8301066804136,-4.6224550979289365 L 382.4834091534885,-6.25859728478993 L 376.5825139201548,-11.39955395113322 L 375.83148224598,-8.495083014045669 A 690.9629921882038 690.9629921882038 0 0 0 217.72385972333606,-30.337391240357988"/><text text-anchor="middle" pointer-events="none" font-size="8px" fill="#000000" x="199.82753717029684" y="-26.990803046399606" font-family="sans-serif">WROTE</text></g><g class="relationship" transform="translate(-171.5056875388431 -182.98782108267932) rotate(392.6794538008994)"><path class="outline" fill="#A5ABB6" stroke="none" d="M 25 0.5 L 90.84828847342727 0.5 L 90.84828847342727 -0.5 L 25 -0.5 Z M 142.62953847342726 0.5 L 208.47782694685455 0.5 L 208.47782694685455 3.5 L 215.47782694685455 0 L 208.47782694685455 -3.5 L 208.47782694685455 -0.5 L 142.62953847342726 -0.5 Z"/><text text-anchor="middle" pointer-events="none" font-size="8px" fill="#000000" x="116.73891347342727" y="3" font-family="sans-serif">PRODUCED</text></g><g class="relationship selected" transform="translate(153.50775924953422 47.43762700578177) rotate(289.55136116197946)"><path class="outline" fill="#A5ABB6" stroke="none" d="M 24.018736134675446,6.953439040707552 L 24.277555179777966,5.987513214418485 A 374.5197192402801 374.5197192402801 0 0 0 95.1122754064695,17.838543143910385 L 95.04259118281344,18.836112243759317 A 375.5197192402801 375.5197192402801 0 0 1 24.018736134675446,6.953439040707552 Z M 141.96393001008363,19.1750402532615 L 141.90866383453778,18.176568596257425 A 374.5197192402801 374.5197192402801 0 0 0 212.90719135864668,7.350046098626408 L 212.17267622877014,4.441354378285041 L 219.81655789442263,6.120959415638003 L 213.88654486514875,11.228301725748231 L 213.1520297352722,8.319610005406863 A 375.5197192402801 375.5197192402801 0 0 1 141.96393001008363,19.1750402532615"/><text text-anchor="middle" pointer-events="none" font-size="8px" fill="#000000" x="118.50157320113244" y="22.239179978926302" font-family="sans-serif">DIRECTED</text></g><g class="relationship" transform="translate(153.50775924953422 47.43762700578177) rotate(229.07103653332933)"><path class="outline" fill="#A5ABB6" stroke="none" d="M 24.018736134675446,6.953439040707552 L 24.277555179777966,5.987513214418485 A 307.8294820511236 307.8294820511236 0 0 0 75.56622222340296,15.165204375344786 L 75.47401706694384,16.160944406237547 A 308.8294820511236 308.8294820511236 0 0 1 24.018736134675446,6.953439040707552 Z M 127.2764955855549,16.594316796011356 L 127.20096261618949,15.597173491095305 A 307.8294820511236 307.8294820511236 0 0 0 178.63599886602833,7.278854662454549 L 177.90813182818263,4.368492215057707 L 185.54815574959525,6.065558648714076 L 179.6064882498226,11.15933792565034 L 178.8786212119769,8.248975478253497 A 308.8294820511236 308.8294820511236 0 0 1 127.2764955855549,16.594316796011356"/><text text-anchor="middle" pointer-events="none" font-size="8px" fill="#000000" x="101.37033612186099" y="19.965759397861063" transform="rotate(180 101.37033612186099 16.965759397861063)" font-family="sans-serif">PRODUCED</text></g><g class="relationship" transform="translate(153.50775924953422 47.43762700578177) rotate(289.55136116197946)"><path class="outline" fill="#A5ABB6" stroke="none" d="M 24.018736134675446,-6.953439040707552 L 24.277555179777966,-5.987513214418485 A 374.5197192402801 374.5197192402801 0 0 1 100.65262772160652,-18.184319398708794 L 100.59773671718703,-19.18281175102493 A 375.5197192402801 375.5197192402801 0 0 0 24.018736134675446,-6.953439040707552 Z M 136.40435575640439,-19.441454543862505 L 136.3638945936683,-18.442273431996398 A 374.5197192402801 374.5197192402801 0 0 1 212.90719135864668,-7.350046098626408 L 212.17267622877014,-4.441354378285041 L 219.81655789442263,-6.120959415638003 L 213.88654486514875,-11.228301725748231 L 213.1520297352722,-8.319610005406863 A 375.5197192402801 375.5197192402801 0 0 0 136.40435575640439,-19.441454543862505"/><text text-anchor="middle" pointer-events="none" font-size="8px" fill="#000000" x="118.50157320113242" y="-16.239179978926302" font-family="sans-serif">WROTE</text></g><g class="relationship" transform="translate(153.50775924953422 47.43762700578177) rotate(229.07103653332933)"><path class="outline" fill="#A5ABB6" stroke="none" d="M 24.018736134675446,-6.953439040707552 L 24.277555179777966,-5.987513214418485 A 307.8294820511236 307.8294820511236 0 0 1 83.53177708281115,-15.798655924823038 L 83.46544844346253,-16.796453755850052 A 308.8294820511236 308.8294820511236 0 0 0 24.018736134675446,-6.953439040707552 Z M 119.27555031074822,-17.096036128509922 L 119.22592466480825,-16.097268239926677 A 307.8294820511236 307.8294820511236 0 0 1 178.63599886602833,-7.278854662454549 L 177.90813182818263,-4.368492215057707 L 185.54815574959525,-6.065558648714076 L 179.6064882498226,-11.15933792565034 L 178.8786212119769,-8.248975478253497 A 308.8294820511236 308.8294820511236 0 0 0 119.27555031074822,-17.096036128509922"/><text text-anchor="middle" pointer-events="none" font-size="8px" fill="#000000" x="101.37033612186092" y="-13.965759397861063" transform="rotate(180 101.37033612186092 -16.965759397861063)" font-family="sans-serif">WROTE</text></g><g class="relationship" transform="translate(153.50775924953422 47.43762700578177) rotate(219.36527805609654)"><path class="outline" fill="#A5ABB6" stroke="none" d="M 25 0.5 L 49.90010054373303 0.5 L 49.90010054373303 -0.5 L 25 -0.5 Z M 101.68135054373303 0.5 L 126.58145108746606 0.5 L 126.58145108746606 3.5 L 133.58145108746606 0 L 126.58145108746606 -3.5 L 126.58145108746606 -0.5 L 101.68135054373303 -0.5 Z"/><text text-anchor="middle" pointer-events="none" font-size="8px" fill="#000000" x="75.79072554373303" y="3" transform="rotate(180 75.79072554373303 0)" font-family="sans-serif">PRODUCED</text></g><g class="relationship" transform="translate(153.50775924953422 47.43762700578177) rotate(183.1935703426879)"><path class="outline" fill="#A5ABB6" stroke="none" d="M 25 0.5 L 53.7585393538789 0.5 L 53.7585393538789 -0.5 L 25 -0.5 Z M 100.6491643538789 0.5 L 129.4077037077578 0.5 L 129.4077037077578 3.5 L 136.4077037077578 0 L 129.4077037077578 -3.5 L 129.4077037077578 -0.5 L 100.6491643538789 -0.5 Z"/><text text-anchor="middle" pointer-events="none" font-size="8px" fill="#000000" x="77.2038518538789" y="3" transform="rotate(180 77.2038518538789 0)" font-family="sans-serif">DIRECTED</text></g><g class="relationship" transform="translate(153.50775924953422 47.43762700578177) rotate(515.0810577875327)"><path class="outline" fill="#A5ABB6" stroke="none" d="M 25 0.5 L 61.52995198832747 0.5 L 61.52995198832747 -0.5 L 25 -0.5 Z M 108.42057698832747 0.5 L 144.95052897665494 0.5 L 144.95052897665494 3.5 L 151.95052897665494 0 L 144.95052897665494 -3.5 L 144.95052897665494 -0.5 L 108.42057698832747 -0.5 Z"/><text text-anchor="middle" pointer-events="none" font-size="8px" fill="#000000" x="84.97526448832747" y="3" transform="rotate(180 84.97526448832747 0)" font-family="sans-serif">DIRECTED</text></g><g class="relationship" transform="translate(153.50775924953422 47.43762700578177) rotate(209.98598272765338)"><path class="outline" fill="#A5ABB6" stroke="none" d="M 25 0.5 L 78.25828153615917 0.5 L 78.25828153615917 -0.5 L 25 -0.5 Z M 125.14890653615917 0.5 L 178.40718807231835 0.5 L 178.40718807231835 3.5 L 185.40718807231835 0 L 178.40718807231835 -3.5 L 178.40718807231835 -0.5 L 125.14890653615917 -0.5 Z"/><text text-anchor="middle" pointer-events="none" font-size="8px" fill="#000000" x="101.70359403615917" y="3" transform="rotate(180 101.70359403615917 0)" font-family="sans-serif">DIRECTED</text></g><g class="relationship" transform="translate(153.50775924953422 47.43762700578177) rotate(203.66564843063935)"><path class="outline" fill="#A5ABB6" stroke="none" d="M 25 0.5 L 143.73912440805242 0.5 L 143.73912440805242 -0.5 L 25 -0.5 Z M 190.62974940805242 0.5 L 309.36887381610484 0.5 L 309.36887381610484 3.5 L 316.36887381610484 0 L 309.36887381610484 -3.5 L 309.36887381610484 -0.5 L 190.62974940805242 -0.5 Z"/><text text-anchor="middle" pointer-events="none" font-size="8px" fill="#000000" x="167.18443690805242" y="3" transform="rotate(180 167.18443690805242 0)" font-family="sans-serif">DIRECTED</text></g><g class="relationship" transform="translate(168.44206665801244 163.38122276646374) rotate(408.103610164429)"><path class="outline" fill="#A5ABB6" stroke="none" d="M 21.40063509461097,12.933012701892217 L 21.90063509461097,12.06698729810778 A 70.73961088671105 70.73961088671105 0 0 0 30.268039466365114,16.187887541638986 L 29.8863240351784,17.112167439502144 A 71.73961088671105 71.73961088671105 0 0 1 21.40063509461097,12.933012701892217 Z M 80.87036018067931,18.551388708301587 L 80.54139380699797,17.607047072564313 A 70.73961088671105 70.73961088671105 0 0 0 89.12794474446186,13.964737676600947 L 87.77689811837078,11.286179666378294 L 95.60308787266322,11.258721884092227 L 90.92934024591662,17.53614835689782 L 89.57829361982554,14.857590346675163 A 71.73961088671105 71.73961088671105 0 0 1 80.87036018067931,18.551388708301587"/><text text-anchor="middle" pointer-events="none" font-size="8px" fill="#000000" x="55.260228243652435" y="25.015930751535166" font-family="sans-serif">PRODUCED</text></g><g class="relationship" transform="translate(168.44206665801244 163.38122276646374) rotate(408.103610164429)"><path class="outline" fill="#A5ABB6" stroke="none" d="M 25 0.5 L 32.016889812259315 0.5 L 32.016889812259315 -0.5 L 25 -0.5 Z M 78.90751481225931 0.5 L 85.92440462451863 0.5 L 85.92440462451863 3.5 L 92.92440462451863 0 L 85.92440462451863 -3.5 L 85.92440462451863 -0.5 L 78.90751481225931 -0.5 Z"/><text text-anchor="middle" pointer-events="none" font-size="8px" fill="#000000" x="55.462202312259315" y="3" font-family="sans-serif">DIRECTED</text></g><g class="relationship" transform="translate(168.44206665801244 163.38122276646374) rotate(408.103610164429)"><path class="outline" fill="#A5ABB6" stroke="none" d="M 21.40063509461097,-12.933012701892217 L 21.90063509461097,-12.06698729810778 A 70.73961088671105 70.73961088671105 0 0 1 37.768767817139405,-18.80304976647649 L 37.49308531795152,-19.764298516614318 A 71.73961088671105 71.73961088671105 0 0 0 21.40063509461097,-12.933012701892217 Z M 73.1260983670955,-20.770177888451016 L 72.90508158664252,-19.79490788339693 A 70.73961088671105 70.73961088671105 0 0 1 89.12794474446186,-13.964737676600947 L 87.77689811837078,-11.286179666378294 L 95.60308787266322,-11.258721884092227 L 90.92934024591662,-17.53614835689782 L 89.57829361982554,-14.857590346675163 A 71.73961088671105 71.73961088671105 0 0 0 73.1260983670955,-20.770177888451016"/><text text-anchor="middle" pointer-events="none" font-size="8px" fill="#000000" x="55.26022824365241" y="-19.015930751535166" font-family="sans-serif">WROTE</text></g></g><g class="layer nodes"><g class="node" transform="translate(168.44206665801244,163.38122276646374)"><circle class="outline" cx="0" cy="0" r="25" fill="#F79767" stroke="#f36924" stroke-width="2px"/><text text-anchor="middle" pointer-events="none" font-family="sans-serif" dy="1.5625" font-size="25" fill="#FFFFFF"/><text text-anchor="middle" pointer-events="none" font-family="sans-serif" dy="1.5625" font-size="25" fill="#FFFFFF"/><text text-anchor="middle" pointer-events="none" x="0" y="0" font-size="10px" fill="#FFFFFF" font-family="sans-serif"> Cameron</text><text text-anchor="middle" pointer-events="none" x="0" y="10" font-size="10px" fill="#FFFFFF" font-family="sans-serif"> Crowe</text></g><g class="node" transform="translate(153.50775924953422,47.43762700578177)"><circle class="outline" cx="0" cy="0" r="25" fill="#F79767" stroke="#f36924" stroke-width="2px"/><text text-anchor="middle" pointer-events="none" font-family="sans-serif" dy="1.5625" font-size="25" fill="#FFFFFF"/><text text-anchor="middle" pointer-events="none" font-family="sans-serif" dy="1.5625" font-size="25" fill="#FFFFFF"/><text text-anchor="middle" pointer-events="none" x="0" y="0" font-size="10px" fill="#FFFFFF" font-family="sans-serif"> Lilly</text><text text-anchor="middle" pointer-events="none" x="0" y="10" font-size="10px" fill="#FFFFFF" font-family="sans-serif"> Wacho…</text></g><g class="node" transform="translate(-171.5056875388431,-182.98782108267932)"><circle class="outline" cx="0" cy="0" r="25" fill="#F79767" stroke="#f36924" stroke-width="2px"/><text text-anchor="middle" pointer-events="none" font-family="sans-serif" dy="1.5625" font-size="25" fill="#FFFFFF"/><text text-anchor="middle" pointer-events="none" font-family="sans-serif" dy="1.5625" font-size="25" fill="#FFFFFF"/><text text-anchor="middle" pointer-events="none" x="0" y="0" font-size="10px" fill="#FFFFFF" font-family="sans-serif"> Lana</text><text text-anchor="middle" pointer-events="none" x="0" y="10" font-size="10px" fill="#FFFFFF" font-family="sans-serif"> Wacho…</text></g><g class="node" transform="translate(-136.09042059985973,9.298824056850833)"><circle class="outline" cx="0" cy="0" r="25" fill="#F79767" stroke="#f36924" stroke-width="2px"/><text text-anchor="middle" pointer-events="none" font-family="sans-serif" dy="1.5625" font-size="25" fill="#FFFFFF"/><text text-anchor="middle" pointer-events="none" font-family="sans-serif" dy="1.5625" font-size="25" fill="#FFFFFF"/><text text-anchor="middle" pointer-events="none" x="0" y="0" font-size="10px" fill="#FFFFFF" font-family="sans-serif"> Nancy</text><text text-anchor="middle" pointer-events="none" x="0" y="10" font-size="10px" fill="#FFFFFF" font-family="sans-serif"> Meyers</text></g><g class="node" transform="translate(-143.9836751781615,149.7634357733513)"><circle class="outline" cx="0" cy="0" r="25" fill="#57C7E3" stroke="#23b3d7" stroke-width="2px"/><text text-anchor="middle" pointer-events="none" font-family="sans-serif" dy="1.5625" font-size="25" fill="#2A2C34"/><text text-anchor="middle" pointer-events="none" x="0" y="5" font-size="10px" fill="#2A2C34" font-family="sans-serif"> Somethi…</text></g><g class="node" transform="translate(-159.15315830428278,-89.58740225851345)"><circle class="outline" cx="0" cy="0" r="25" fill="#57C7E3" stroke="#23b3d7" stroke-width="2px"/><text text-anchor="middle" pointer-events="none" font-family="sans-serif" dy="1.5625" font-size="25" fill="#2A2C34"/><text text-anchor="middle" pointer-events="none" font-family="sans-serif" dy="1.5625" font-size="25" fill="#2A2C34"/><text text-anchor="middle" pointer-events="none" x="0" y="0" font-size="10px" fill="#2A2C34" font-family="sans-serif"> The</text><text text-anchor="middle" pointer-events="none" x="0" y="10" font-size="10px" fill="#2A2C34" font-family="sans-serif"> Matrix</text></g><g class="node" transform="translate(-28.735943108608907,-57.72138470171041)"><circle class="outline" cx="0" cy="0" r="25" fill="#57C7E3" stroke="#23b3d7" stroke-width="2px"/><text text-anchor="middle" pointer-events="none" font-family="sans-serif" dy="1.5625" font-size="25" fill="#2A2C34"/><text text-anchor="middle" pointer-events="none" font-family="sans-serif" dy="1.5625" font-size="25" fill="#2A2C34"/><text text-anchor="middle" pointer-events="none" font-family="sans-serif" dy="1.5625" font-size="25" fill="#2A2C34"/><text text-anchor="middle" pointer-events="none" x="0" y="-5" font-size="10px" fill="#2A2C34" font-family="sans-serif"> The</text><text text-anchor="middle" pointer-events="none" x="0" y="5" font-size="10px" fill="#2A2C34" font-family="sans-serif"> Matrix</text><text text-anchor="middle" pointer-events="none" x="0" y="15" font-size="10px" fill="#2A2C34" font-family="sans-serif"> Reloa…</text></g><g class="node" transform="translate(-6.969519287618443,121.99319539894151)"><circle class="outline" cx="0" cy="0" r="25" fill="#57C7E3" stroke="#23b3d7" stroke-width="2px"/><text text-anchor="middle" pointer-events="none" font-family="sans-serif" dy="1.5625" font-size="25" fill="#2A2C34"/><text text-anchor="middle" pointer-events="none" font-family="sans-serif" dy="1.5625" font-size="25" fill="#2A2C34"/><text text-anchor="middle" pointer-events="none" font-family="sans-serif" dy="1.5625" font-size="25" fill="#2A2C34"/><text text-anchor="middle" pointer-events="none" x="0" y="-5" font-size="10px" fill="#2A2C34" font-family="sans-serif"> The</text><text text-anchor="middle" pointer-events="none" x="0" y="5" font-size="10px" fill="#2A2C34" font-family="sans-serif"> Matrix</text><text text-anchor="middle" pointer-events="none" x="0" y="15" font-size="10px" fill="#2A2C34" font-family="sans-serif"> Revol…</text></g><g class="node" transform="translate(-7.649281863319818,38.44569084268541)"><circle class="outline" cx="0" cy="0" r="25" fill="#57C7E3" stroke="#23b3d7" stroke-width="2px"/><text text-anchor="middle" pointer-events="none" font-family="sans-serif" dy="1.5625" font-size="25" fill="#2A2C34"/><text text-anchor="middle" pointer-events="none" font-family="sans-serif" dy="1.5625" font-size="25" fill="#2A2C34"/><text text-anchor="middle" pointer-events="none" x="0" y="0" font-size="10px" fill="#2A2C34" font-family="sans-serif"> Cloud</text><text text-anchor="middle" pointer-events="none" x="0" y="10" font-size="10px" fill="#2A2C34" font-family="sans-serif"> Atlas</text></g><g class="node" transform="translate(16.06222111280332,-111.07186027478721)"><circle class="outline" cx="0" cy="0" r="25" fill="#57C7E3" stroke="#23b3d7" stroke-width="2px"/><text text-anchor="middle" pointer-events="none" font-family="sans-serif" dy="1.5625" font-size="25" fill="#2A2C34"/><text text-anchor="middle" pointer-events="none" font-family="sans-serif" dy="1.5625" font-size="25" fill="#2A2C34"/><text text-anchor="middle" pointer-events="none" x="0" y="0" font-size="10px" fill="#2A2C34" font-family="sans-serif"> V for</text><text text-anchor="middle" pointer-events="none" x="0" y="10" font-size="10px" fill="#2A2C34" font-family="sans-serif"> Vendetta</text></g><g class="node" transform="translate(235.181406354292,-182.5462384747105)"><circle class="outline" cx="0" cy="0" r="25" fill="#57C7E3" stroke="#23b3d7" stroke-width="2px"/><text text-anchor="middle" pointer-events="none" font-family="sans-serif" dy="1.5625" font-size="25" fill="#2A2C34"/><text text-anchor="middle" pointer-events="none" font-family="sans-serif" dy="1.5625" font-size="25" fill="#2A2C34"/><text text-anchor="middle" pointer-events="none" x="0" y="0" font-size="10px" fill="#2A2C34" font-family="sans-serif"> Speed</text><text text-anchor="middle" pointer-events="none" x="0" y="10" font-size="10px" fill="#2A2C34" font-family="sans-serif"> Racer</text></g><g class="node" transform="translate(30.905571302901958,-53.144578874309424)"><circle class="outline" cx="0" cy="0" r="25" fill="#57C7E3" stroke="#23b3d7" stroke-width="2px"/><text text-anchor="middle" pointer-events="none" font-family="sans-serif" dy="1.5625" font-size="25" fill="#2A2C34"/><text text-anchor="middle" pointer-events="none" font-family="sans-serif" dy="1.5625" font-size="25" fill="#2A2C34"/><text text-anchor="middle" pointer-events="none" x="0" y="0" font-size="10px" fill="#2A2C34" font-family="sans-serif"> Ninja</text><text text-anchor="middle" pointer-events="none" x="0" y="10" font-size="10px" fill="#2A2C34" font-family="sans-serif"> Assassin</text></g><g class="node" transform="translate(247.19029251482598,251.15868075227849)"><circle class="outline" cx="0" cy="0" r="25" fill="#57C7E3" stroke="#23b3d7" stroke-width="2px"/><text text-anchor="middle" pointer-events="none" font-family="sans-serif" dy="1.5625" font-size="25" fill="#2A2C34"/><text text-anchor="middle" pointer-events="none" font-family="sans-serif" dy="1.5625" font-size="25" fill="#2A2C34"/><text text-anchor="middle" pointer-events="none" x="0" y="0" font-size="10px" fill="#2A2C34" font-family="sans-serif"> Jerry</text><text text-anchor="middle" pointer-events="none" x="0" y="10" font-size="10px" fill="#2A2C34" font-family="sans-serif"> Maguire</text></g></g></svg>