<svg xmlns="http://www.w3.org/2000/svg" width="343.0966796875" height="291.61041259765625" viewBox="-80.99000549316406 -55.792999267578125 343.0966796875 291.61041259765625"><title>Neo4j Graph Visualization</title><desc>Created using Neo4j (http://www.neo4j.com/)</desc><g class="layer relationships"><g class="relationship" transform="translate(233.106676385818 180.88315138831175) rotate(269.85967262331206)"><path class="outline" fill="#A5ABB6" stroke="none" d="M 24.018736134675446,-6.953439040707552 L 24.277555179777966,-5.987513214418485 A 108.1839368508411 108.1839368508411 0 0 1 39.64709522387336,-8.93395206927427 L 39.53034477501065,-9.927113351589654 A 109.1839368508411 109.1839368508411 0 0 0 24.018736134675446,-6.953439040707552 Z M 61.60281572305309,-10.274838700808274 L 61.51740757986763,-9.278492651948937 A 108.1839368508411 108.1839368508411 0 0 1 76.97213281898517,-6.817653186270867 L 76.2873403684547,-3.8968554699446494 L 83.90145956550144,-5.706603754420757 L 77.8851894196925,-10.71205014137249 L 77.20039696916201,-7.791252425046272 A 109.1839368508411 109.1839368508411 0 0 0 61.60281572305309,-10.274838700808274"/><text text-anchor="middle" pointer-events="none" font-size="8px" fill="#000000" x="50.5656455563817" y="-7.160307266824603" transform="rotate(180 50.5656455563817 -10.160307266824603)" font-family="sans-serif">road</text></g><g class="relationship" transform="translate(232.84157444736908 72.64203549407488) rotate(241.27116113845835)"><path class="outline" fill="#A5ABB6" stroke="none" d="M 21.40063509461097,-12.933012701892217 L 21.90063509461097,-12.06698729810778 A 66.07325301485736 66.07325301485736 0 0 1 30.535739723993313,-16.24815578717874 L 30.1664295906999,-17.177461993682712 A 67.07325301485736 67.07325301485736 0 0 0 21.40063509461097,-12.933012701892217 Z M 76.01614787711873,-18.52084182494668 L 75.70188123091312,-17.571507070983316 A 66.07325301485736 66.07325301485736 0 0 1 84.56697588102759,-13.903087964761669 L 83.22166384051134,-11.221645160292027 L 91.04789443154279,-11.210933670968704 L 86.36072526838258,-17.478345037387857 L 85.01541322786633,-14.796902232918216 A 67.07325301485736 67.07325301485736 0 0 0 76.01614787711873,-18.52084182494668"/><text text-anchor="middle" pointer-events="none" font-size="8px" fill="#000000" x="52.987526561808735" y="-18.39056756025697" transform="rotate(180 52.987526561808735 -21.39056756025697)" font-family="sans-serif">twowheeler</text></g><g class="relationship" transform="translate(178.33741495600415 -26.79299857947765) rotate(511.761191425962)"><path class="outline" fill="#A5ABB6" stroke="none" d="M 21.40063509461097,12.933012701892217 L 21.90063509461097,12.06698729810778 A 64.34123738559698 64.34123738559698 0 0 0 29.7281940580567,15.904302166210805 L 29.349851012158084,16.829967623933058 A 65.34123738559698 65.34123738559698 0 0 1 21.40063509461097,12.933012701892217 Z M 75.15734666028068,18.191245166906192 L 74.83463938205091,17.24474634885224 A 64.34123738559698 64.34123738559698 0 0 0 82.87625362893426,13.879021311433553 L 81.53318030557418,11.196456484988818 L 89.35941711119867,11.192277694667455 L 84.66701806008106,17.455774413359865 L 83.32394473672097,14.773209586915131 A 65.34123738559698 65.34123738559698 0 0 1 75.15734666028068,18.191245166906192"/><text text-anchor="middle" pointer-events="none" font-size="8px" fill="#000000" x="52.14519409632148" y="24.158466214118448" transform="rotate(180 52.14519409632148 21.158466214118448)" font-family="sans-serif">twowheeler</text></g><g class="relationship" transform="translate(79.91915145779232 26.0642706527696) rotate(533.3380101366816)"><path class="outline" fill="#A5ABB6" stroke="none" d="M 25 0.5 L 43.67054282883467 0.5 L 43.67054282883467 -0.5 L 25 -0.5 Z M 63.00648032883467 0.5 L 81.67702315766934 0.5 L 81.67702315766934 3.5 L 88.67702315766934 0 L 81.67702315766934 -3.5 L 81.67702315766934 -0.5 L 63.00648032883467 -0.5 Z"/><text text-anchor="middle" pointer-events="none" font-size="8px" fill="#000000" x="53.33851157883467" y="3" transform="rotate(180 53.33851157883467 0)" font-family="sans-serif">trek</text></g><g class="relationship" transform="translate(178.33741495600415 -26.79299857947765) rotate(511.761191425962)"><path class="outline" fill="#A5ABB6" stroke="none" d="M 25 0.5 L 41.35120262411907 0.5 L 41.35120262411907 -0.5 L 25 -0.5 Z M 63.36292137411907 0.5 L 79.71412399823814 0.5 L 79.71412399823814 3.5 L 86.71412399823814 0 L 79.71412399823814 -3.5 L 79.71412399823814 -0.5 L 63.36292137411907 -0.5 Z"/><text text-anchor="middle" pointer-events="none" font-size="8px" fill="#000000" x="52.35706199911907" y="3" transform="rotate(180 52.35706199911907 0)" font-family="sans-serif">road</text></g><g class="relationship" transform="translate(178.33741495600415 -26.79299857947765) rotate(511.761191425962)"><path class="outline" fill="#A5ABB6" stroke="none" d="M 21.40063509461097,-12.933012701892217 L 21.90063509461097,-12.06698729810778 A 64.34123738559698 64.34123738559698 0 0 1 42.62755773293927,-19.6612157179476 L 42.44969829909146,-20.645271621741344 A 65.34123738559698 65.34123738559698 0 0 0 21.40063509461097,-12.933012701892217 Z M 61.85405506690329,-21.221917752033434 L 61.734944967509776,-20.22903669962963 A 64.34123738559698 64.34123738559698 0 0 1 82.87625362893426,-13.879021311433553 L 81.53318030557418,-11.196456484988818 L 89.35941711119867,-11.192277694667455 L 84.66701806008106,-17.455774413359865 L 83.32394473672097,-14.773209586915131 A 65.34123738559698 65.34123738559698 0 0 0 61.85405506690329,-21.221917752033434"/><text text-anchor="middle" pointer-events="none" font-size="8px" fill="#000000" x="52.14519409632149" y="-18.158466214118448" transform="rotate(180 52.14519409632149 -21.158466214118448)" font-family="sans-serif">trek</text></g><g class="relationship" transform="translate(232.84157444736908 72.64203549407488) rotate(241.27116113845835)"><path class="outline" fill="#A5ABB6" stroke="none" d="M 25 0.5 L 42.19076619272823 0.5 L 42.19076619272823 -0.5 L 25 -0.5 Z M 64.20248494272823 0.5 L 81.39325113545647 0.5 L 81.39325113545647 3.5 L 88.39325113545647 0 L 81.39325113545647 -3.5 L 81.39325113545647 -0.5 L 64.20248494272823 -0.5 Z"/><text text-anchor="middle" pointer-events="none" font-size="8px" fill="#000000" x="53.19662556772823" y="3" transform="rotate(180 53.19662556772823 0)" font-family="sans-serif">road</text></g><g class="relationship" transform="translate(232.84157444736908 72.64203549407488) rotate(241.27116113845835)"><path class="outline" fill="#A5ABB6" stroke="none" d="M 21.40063509461097,12.933012701892217 L 21.90063509461097,12.06698729810778 A 66.07325301485736 66.07325301485736 0 0 0 43.4649755369448,19.91553754635359 L 43.291345731514824,20.900348538710176 A 67.07325301485736 67.07325301485736 0 0 1 21.40063509461097,12.933012701892217 Z M 62.69577577540866,21.468891180462037 L 62.58010352418133,20.475603744572496 A 66.07325301485736 66.07325301485736 0 0 0 84.56697588102759,13.903087964761669 L 83.22166384051134,11.221645160292027 L 91.04789443154279,11.210933670968704 L 86.36072526838258,17.478345037387857 L 85.01541322786633,14.796902232918216 A 67.07325301485736 67.07325301485736 0 0 1 62.69577577540866,21.468891180462037"/><text text-anchor="middle" pointer-events="none" font-size="8px" fill="#000000" x="52.98752656180874" y="24.39056756025697" transform="rotate(180 52.98752656180874 21.39056756025697)" font-family="sans-serif">trek</text></g><g class="relationship" transform="translate(233.106676385818 180.88315138831175) rotate(269.85967262331206)"><path class="outline" fill="#A5ABB6" stroke="none" d="M 24.018736134675446,6.953439040707552 L 24.277555179777966,5.987513214418485 A 108.1839368508411 108.1839368508411 0 0 0 40.97064708640215,9.081288257322768 L 40.866130910954304,10.075811444116198 A 109.1839368508411 109.1839368508411 0 0 1 24.018736134675446,6.953439040707552 Z M 60.26300850122945,10.381386023858795 L 60.18987146000703,9.38406412336667 A 108.1839368508411 108.1839368508411 0 0 0 76.97213281898517,6.817653186270867 L 76.2873403684547,3.8968554699446494 L 83.90145956550144,5.706603754420757 L 77.8851894196925,10.71205014137249 L 77.20039696916201,7.791252425046272 A 109.1839368508411 109.1839368508411 0 0 1 60.26300850122945,10.381386023858795"/><text text-anchor="middle" pointer-events="none" font-size="8px" fill="#000000" x="50.56564555638176" y="13.160307266824603" transform="rotate(180 50.56564555638176 10.160307266824603)" font-family="sans-serif">trek</text></g><g class="relationship" transform="translate(233.106676385818 180.88315138831175) rotate(207.41353517208893)"><path class="outline" fill="#A5ABB6" stroke="none" d="M 21.40063509461097,12.933012701892217 L 21.90063509461097,12.06698729810778 A 62.18731863030056 62.18731863030056 0 0 0 41.58759884422876,19.343422433095583 L 41.40417405897078,20.326456180305243 A 63.18731863030056 63.18731863030056 0 0 1 21.40063509461097,12.933012701892217 Z M 60.80828718126599,20.913492181492586 L 60.6846232413982,19.921168025797293 A 62.18731863030056 62.18731863030056 0 0 0 80.77545069772228,13.848137310193714 L 79.4352503047876,11.164136023536473 L 87.26148709874495,11.168336607788996 L 82.56238455496852,17.42680569240337 L 81.22218416203384,14.742804405746128 A 63.18731863030056 63.18731863030056 0 0 1 60.80828718126599,20.913492181492586"/><text text-anchor="middle" pointer-events="none" font-size="8px" fill="#000000" x="51.09867137243097" y="23.869840453068583" transform="rotate(180 51.09867137243097 20.869840453068583)" font-family="sans-serif">trek</text></g><g class="relationship" transform="translate(135.7890261986872 130.4093026053458) rotate(498.882793075198)"><path class="outline" fill="#A5ABB6" stroke="none" d="M 24.018736134675446,-6.953439040707552 L 24.277555179777966,-5.987513214418485 A 124.03070842923997 124.03070842923997 0 0 1 31.5807133262287,-7.709417855643451 L 31.380776135780884,-8.689226571605829 A 125.03070842923997 125.03070842923997 0 0 0 24.018736134675446,-6.953439040707552 Z M 77.75700226698825,-9.37258491597973 L 77.58602077102829,-8.387310675963633 A 124.03070842923997 124.03070842923997 0 0 1 84.93674209579903,-6.88133241878246 L 84.24600160680308,-3.9619356357360673 L 91.86379133773994,-5.756170741632962 L 85.8577294144603,-10.773861462844318 L 85.16698892546434,-7.854464679797925 A 125.03070842923997 125.03070842923997 0 0 0 77.75700226698825,-9.37258491597973"/><text text-anchor="middle" pointer-events="none" font-size="8px" fill="#000000" x="54.54429139265099" y="-7.700240068239921" transform="rotate(180 54.54429139265099 -10.700240068239921)" font-family="sans-serif">twowheeler</text></g><g class="relationship" transform="translate(48.25385751569616 206.8174032850164) rotate(208.67057170386897)"><path class="outline" fill="#A5ABB6" stroke="none" d="M 24.018736134675446,-6.953439040707552 L 24.277555179777966,-5.987513214418485 A 120.17006229395827 120.17006229395827 0 0 1 30.623274826879364,-7.504474320352486 L 30.417261942695514,-8.483023599413201 A 121.17006229395827 121.17006229395827 0 0 0 24.018736134675446,-6.953439040707552 Z M 76.78172900832857,-9.177161594670778 L 76.60510226859977,-8.192883689395671 A 120.17006229395827 120.17006229395827 0 0 1 82.99338957160997,-6.866567674743167 L 82.30402818429243,-3.946844934879733 L 89.92096952917758,-5.744678227646153 L 83.91253808803336,-10.759531327894413 L 83.22317670071583,-7.839808588030979 A 121.17006229395827 121.17006229395827 0 0 0 76.78172900832857,-9.177161594670778"/><text text-anchor="middle" pointer-events="none" font-size="8px" fill="#000000" x="53.57346638752922" y="-7.5686875173212655" transform="rotate(180 53.57346638752922 -10.568687517321266)" font-family="sans-serif">twowheeler</text></g><g class="relationship" transform="translate(-51.990006623348926 152.00239201058645) rotate(279.56513040404195)"><path class="outline" fill="#A5ABB6" stroke="none" d="M 24.018736134675446,6.953439040707552 L 24.277555179777966,5.987513214418485 A 120.3450102717493 120.3450102717493 0 0 0 30.66661684613396,7.513857422502454 L 30.460887344602284,8.49246631894654 A 121.3450102717493 121.3450102717493 0 0 1 24.018736134675446,6.953439040707552 Z M 76.8259157693791,9.186109019442881 L 76.64955268777989,8.201783837681873 A 120.3450102717493 120.3450102717493 0 0 0 83.08141448894217,6.8672466936504115 L 82.3919896775937,3.9475389292505016 L 90.00897007443338,5.74520676123729 L 84.00064757074014,10.760190379516958 L 83.31122275939167,7.840482615117049 A 121.3450102717493 121.3450102717493 0 0 1 76.8259157693791,9.186109019442881"/><text text-anchor="middle" pointer-events="none" font-size="8px" fill="#000000" x="53.61743973627451" y="13.574648763030723" font-family="sans-serif">twowheeler</text></g><g class="relationship" transform="translate(-51.990006623348926 152.00239201058645) rotate(279.56513040404195)"><path class="outline" fill="#A5ABB6" stroke="none" d="M 24.018736134675446,-6.953439040707552 L 24.277555179777966,-5.987513214418485 A 120.3450102717493 120.3450102717493 0 0 1 44.01405340987284,-9.545950578168444 L 43.91923367131014,-10.541445036806408 A 121.3450102717493 121.3450102717493 0 0 0 24.018736134675446,-6.953439040707552 Z M 63.3122988152859,-10.831574441109353 L 63.24730097996941,-9.833689036163392 A 120.3450102717493 120.3450102717493 0 0 1 83.08141448894217,-6.8672466936504115 L 82.3919896775937,-3.9475389292505016 L 90.00897007443338,-5.74520676123729 L 84.00064757074014,-10.760190379516958 L 83.31122275939167,-7.840482615117049 A 121.3450102717493 121.3450102717493 0 0 0 63.3122988152859,-10.831574441109353"/><text text-anchor="middle" pointer-events="none" font-size="8px" fill="#000000" x="53.617439736274484" y="-7.574648763030723" font-family="sans-serif">trek</text></g><g class="relationship" transform="translate(48.25385751569616 206.8174032850164) rotate(208.67057170386897)"><path class="outline" fill="#A5ABB6" stroke="none" d="M 24.018736134675446,6.953439040707552 L 24.277555179777966,5.987513214418485 A 120.17006229395827 120.17006229395827 0 0 0 43.970187250937926,9.53933125059821 L 43.875241234568534,10.534813673333844 A 121.17006229395827 121.17006229395827 0 0 1 24.018736134675446,6.953439040707552 Z M 63.268359023200745,10.825154547618865 L 63.203256283124134,9.827275981241911 A 120.17006229395827 120.17006229395827 0 0 0 82.99338957160997,6.866567674743167 L 82.30402818429243,3.946844934879733 L 89.92096952917758,5.744678227646153 L 83.91253808803336,10.759531327894413 L 83.22317670071583,7.839808588030979 A 121.17006229395827 121.17006229395827 0 0 1 63.268359023200745,10.825154547618865"/><text text-anchor="middle" pointer-events="none" font-size="8px" fill="#000000" x="53.573466387529265" y="13.568687517321266" transform="rotate(180 53.573466387529265 10.568687517321266)" font-family="sans-serif">trek</text></g><g class="relationship" transform="translate(135.7890261986872 130.4093026053458) rotate(498.882793075198)"><path class="outline" fill="#A5ABB6" stroke="none" d="M 24.018736134675446,6.953439040707552 L 24.277555179777966,5.987513214418485 A 124.03070842923997 124.03070842923997 0 0 0 44.938725402428034,9.6850133309118 L 44.846487444253974,10.680750323833067 A 125.03070842923997 125.03070842923997 0 0 1 24.018736134675446,6.953439040707552 Z M 64.23845926111238,10.966492973901694 L 64.17559954719869,9.96847060122326 A 124.03070842923997 124.03070842923997 0 0 0 84.93674209579903,6.88133241878246 L 84.24600160680308,3.9619356357360673 L 91.86379133773994,5.756170741632962 L 85.8577294144603,10.773861462844318 L 85.16698892546434,7.854464679797925 A 125.03070842923997 125.03070842923997 0 0 1 64.23845926111238,10.966492973901694"/><text text-anchor="middle" pointer-events="none" font-size="8px" fill="#000000" x="54.54429139265101" y="13.700240068239921" transform="rotate(180 54.54429139265101 10.700240068239921)" font-family="sans-serif">trek</text></g><g class="relationship" transform="translate(135.7890261986872 130.4093026053458) rotate(241.8338907686105)"><path class="outline" fill="#A5ABB6" stroke="none" d="M 25 0.5 L 46.01253605679307 0.5 L 46.01253605679307 -0.5 L 25 -0.5 Z M 65.34847355679307 0.5 L 86.36100961358613 0.5 L 86.36100961358613 3.5 L 93.36100961358613 0 L 86.36100961358613 -3.5 L 86.36100961358613 -0.5 L 65.34847355679307 -0.5 Z"/><text text-anchor="middle" pointer-events="none" font-size="8px" fill="#000000" x="55.68050480679307" y="3" transform="rotate(180 55.68050480679307 0)" font-family="sans-serif">trek</text></g><g class="relationship" transform="translate(233.106676385818 180.88315138831175) rotate(207.41353517208893)"><path class="outline" fill="#A5ABB6" stroke="none" d="M 25 0.5 L 40.30822286877763 0.5 L 40.30822286877763 -0.5 L 25 -0.5 Z M 62.31994161877763 0.5 L 77.62816448755525 0.5 L 77.62816448755525 3.5 L 84.62816448755525 0 L 77.62816448755525 -3.5 L 77.62816448755525 -0.5 L 62.31994161877763 -0.5 Z"/><text text-anchor="middle" pointer-events="none" font-size="8px" fill="#000000" x="51.31408224377763" y="3" transform="rotate(180 51.31408224377763 0)" font-family="sans-serif">road</text></g><g class="relationship" transform="translate(233.106676385818 180.88315138831175) rotate(207.41353517208893)"><path class="outline" fill="#A5ABB6" stroke="none" d="M 21.40063509461097,-12.933012701892217 L 21.90063509461097,-12.06698729810778 A 62.18731863030056 62.18731863030056 0 0 1 21.955471486227022,-12.098609902198518 L 21.45635328002074,-12.965143811652396 A 63.18731863030056 63.18731863030056 0 0 0 21.40063509461097,-12.933012701892217 Z M 81.16462551767555,-14.771508531920112 L 80.71880297418807,-13.876387166004655 A 62.18731863030056 62.18731863030056 0 0 1 80.77545069772228,-13.848137310193714 L 79.4352503047876,-11.164136023536473 L 87.26148709874495,-11.168336607788996 L 82.56238455496852,-17.42680569240337 L 81.22218416203384,-14.742804405746128 A 63.18731863030056 63.18731863030056 0 0 0 81.16462551767555,-14.771508531920112"/><text text-anchor="middle" pointer-events="none" font-size="8px" fill="#000000" x="51.09867137243097" y="-17.869840453068583" transform="rotate(180 51.09867137243097 -20.869840453068583)" font-family="sans-serif">PublicTransport</text></g><g class="relationship" transform="translate(135.7890261986872 130.4093026053458) rotate(329.23819887260936)"><path class="outline" fill="#A5ABB6" stroke="none" d="M 25 0.5 L 43.303825694367646 0.5 L 43.303825694367646 -0.5 L 25 -0.5 Z M 62.639763194367646 0.5 L 80.94358888873529 0.5 L 80.94358888873529 3.5 L 87.94358888873529 0 L 80.94358888873529 -3.5 L 80.94358888873529 -0.5 L 62.639763194367646 -0.5 Z"/><text text-anchor="middle" pointer-events="none" font-size="8px" fill="#000000" x="52.971794444367646" y="3" font-family="sans-serif">trek</text></g></g><g class="layer nodes"><g class="node" transform="translate(233.106676385818,180.88315138831175)"><circle class="outline" cx="0" cy="0" r="25" fill="#F16667" stroke="#eb2728" stroke-width="2px"/><text text-anchor="middle" pointer-events="none" font-family="sans-serif" dy="1.5625" font-size="25" fill="#FFFFFF"/><text text-anchor="middle" pointer-events="none" x="0" y="5" font-size="10px" fill="#FFFFFF" font-family="sans-serif"> Darjeeling</text></g><g class="node" transform="translate(-32.99030518135781,39.25215128011711)"><circle class="outline" cx="0" cy="0" r="25" fill="#8DCC93" stroke="#5db665" stroke-width="2px"/><text text-anchor="middle" pointer-events="none" font-family="sans-serif" dy="1.5625" font-size="25" fill="#2A2C34"/><text text-anchor="middle" pointer-events="none" x="0" y="5" font-size="10px" fill="#2A2C34" font-family="sans-serif"> Sandak…</text></g><g class="node" transform="translate(232.84157444736908,72.64203549407488)"><circle class="outline" cx="0" cy="0" r="25" fill="#D9C8AE" stroke="#c0a378" stroke-width="2px"/><text text-anchor="middle" pointer-events="none" font-family="sans-serif" dy="1.5625" font-size="25" fill="#2A2C34"/><text text-anchor="middle" pointer-events="none" x="0" y="5" font-size="10px" fill="#2A2C34" font-family="sans-serif"> Tumbling</text></g><g class="node" transform="translate(178.33741495600415,-26.79299857947765)"><circle class="outline" cx="0" cy="0" r="25" fill="#D9C8AE" stroke="#c0a378" stroke-width="2px"/><text text-anchor="middle" pointer-events="none" font-family="sans-serif" dy="1.5625" font-size="25" fill="#2A2C34"/><text text-anchor="middle" pointer-events="none" x="0" y="5" font-size="10px" fill="#2A2C34" font-family="sans-serif"> Gairibus</text></g><g class="node" transform="translate(79.91915145779232,26.0642706527696)"><circle class="outline" cx="0" cy="0" r="25" fill="#D9C8AE" stroke="#c0a378" stroke-width="2px"/><text text-anchor="middle" pointer-events="none" font-family="sans-serif" dy="1.5625" font-size="25" fill="#2A2C34"/><text text-anchor="middle" pointer-events="none" x="0" y="5" font-size="10px" fill="#2A2C34" font-family="sans-serif"> BhikeBh…</text></g><g class="node" transform="translate(135.7890261986872,130.4093026053458)"><circle class="outline" cx="0" cy="0" r="25" fill="#F16667" stroke="#eb2728" stroke-width="2px"/><text text-anchor="middle" pointer-events="none" font-family="sans-serif" dy="1.5625" font-size="25" fill="#FFFFFF"/><text text-anchor="middle" pointer-events="none" x="0" y="5" font-size="10px" fill="#FFFFFF" font-family="sans-serif"> Rimbik</text></g><g class="node" transform="translate(48.25385751569616,206.8174032850164)"><circle class="outline" cx="0" cy="0" r="25" fill="#D9C8AE" stroke="#c0a378" stroke-width="2px"/><text text-anchor="middle" pointer-events="none" font-family="sans-serif" dy="1.5625" font-size="25" fill="#2A2C34"/><text text-anchor="middle" pointer-events="none" x="0" y="5" font-size="10px" fill="#2A2C34" font-family="sans-serif"> Sirikhola</text></g><g class="node" transform="translate(-51.990006623348926,152.00239201058645)"><circle class="outline" cx="0" cy="0" r="25" fill="#D9C8AE" stroke="#c0a378" stroke-width="2px"/><text text-anchor="middle" pointer-events="none" font-family="sans-serif" dy="1.5625" font-size="25" fill="#2A2C34"/><text text-anchor="middle" pointer-events="none" x="0" y="5" font-size="10px" fill="#2A2C34" font-family="sans-serif"> Gurdum</text></g></g></svg>